<?xml version="1.0" encoding="utf-8"?>
<!-- Generator: Adobe Illustrator 23.0.6, SVG Export Plug-In . SVG Version: 6.00 Build 0)  -->
<svg version="1.1" id="Logo_Felix" xmlns="http://www.w3.org/2000/svg" xmlns:xlink="http://www.w3.org/1999/xlink" x="0px"
     y="0px"
     viewBox="0 0 142 141.66" style="enable-background:new 0 0 142 141.66;" xml:space="preserve">
<style>
	.st0{fill:url(#SVGID_1_);}
	.st1{fill:url(#SVGID_2_);}
	.st2{fill:url(#SVGID_3_);}
	.st3{fill:url(#SVGID_4_);}
	.st4{fill:url(#SVGID_5_);}
	.st5{fill:url(#SVGID_6_);}
	.st6{fill:url(#SVGID_7_);}
	.st7{fill:url(#SVGID_8_);}
	.st8{fill:url(#SVGID_9_);}
	.st9{fill:url(#SVGID_10_);}
	.st10{fill:url(#SVGID_11_);}
	.st11{fill:url(#SVGID_12_);}
	.st12{fill:url(#SVGID_13_);}
	.st13{fill:url(#SVGID_14_);}
	.st14{fill:url(#SVGID_15_);}
	.st15{fill:url(#SVGID_16_);}
	.st16{fill:url(#SVGID_17_);}
	.st17{fill:url(#SVGID_18_);}
	.st18{fill:url(#SVGID_19_);}
	.st19{fill:url(#SVGID_20_);}
	.st20{fill:url(#SVGID_21_);}
	.st21{fill:url(#SVGID_22_);}
	.st22{fill:url(#SVGID_23_);}
	.st23{fill:url(#SVGID_24_);}
	.st24{fill:url(#SVGID_25_);}
</style>
    <g>
	<g>
		<linearGradient id="SVGID_1_" gradientUnits="userSpaceOnUse" x1="35.1244" y1="125.6377" x2="107.9709"
                        y2="17.6382">
			<stop offset="0" style="stop-color:#410C2C"/>
            <stop offset="0.0744" style="stop-color:#4B122F"/>
            <stop offset="0.2012" style="stop-color:#662138"/>
            <stop offset="0.3649" style="stop-color:#923A46"/>
            <stop offset="0.5572" style="stop-color:#CE5C59"/>
            <stop offset="0.6449" style="stop-color:#EC6D63"/>
            <stop offset="0.8018" style="stop-color:#EC6D63"/>
            <stop offset="0.8901" style="stop-color:#9E414A"/>
            <stop offset="1" style="stop-color:#410C2C"/>
		</linearGradient>
        <path class="st0" d="M72.06,130.66c-0.09,0-0.19,0-0.28,0c-1.23-0.01-2.23-1.01-2.22-2.24c0.01-1.23,1.02-2.13,2.24-2.22
			c0.09,0,0.17,0,0.26,0c21.81,0,41.62-12.83,50.54-32.74c6.04-13.49,6.47-28.53,1.2-42.34c-5.27-13.81-15.6-24.74-29.09-30.78
			c-13.49-6.04-28.53-6.46-42.34-1.2c-13.81,5.27-24.74,15.6-30.78,29.09c-8.94,19.97-5.26,43.38,9.37,59.65
			c0.83,0.92,0.75,2.33-0.17,3.15c-0.92,0.82-2.33,0.75-3.15-0.17C11.83,93.28,7.85,67.98,17.51,46.4
			c6.53-14.58,18.34-25.74,33.27-31.44c14.92-5.7,31.18-5.24,45.75,1.29c14.58,6.53,25.75,18.34,31.44,33.27
			c5.69,14.93,5.23,31.17-1.29,45.75C117.04,116.8,95.63,130.66,72.06,130.66z"/>
	</g>
        <g>
		<linearGradient id="SVGID_2_" gradientUnits="userSpaceOnUse" x1="36.82" y1="121.2745" x2="104.1107"
                        y2="21.5119">
			<stop offset="0" style="stop-color:#410C2C"/>
            <stop offset="0.0744" style="stop-color:#4B122F"/>
            <stop offset="0.2012" style="stop-color:#662138"/>
            <stop offset="0.3649" style="stop-color:#923A46"/>
            <stop offset="0.5572" style="stop-color:#CE5C59"/>
            <stop offset="0.6449" style="stop-color:#EC6D63"/>
            <stop offset="0.8018" style="stop-color:#EC6D63"/>
            <stop offset="0.8901" style="stop-color:#9E414A"/>
            <stop offset="1" style="stop-color:#410C2C"/>
		</linearGradient>
            <path class="st1" d="M107.57,66.84c0.01,0.01,0.01,0.01,0.02,0.02c0.75,0.77,1.21,1.71,1.39,2.7l8.86-8.94l-5.13-5.07l-8.19,8.24
			l2.97,2.98L107.57,66.84z M107.65,74.02c-0.01,0.01-0.02,0.02-0.03,0.03l-3.08,3.08l8.1,8.17l5.1-5.1l-8.75-8.84
			C108.82,72.32,108.37,73.25,107.65,74.02 M105.8,72.95c1.32-1.41,1.31-3.61-0.05-5l0,0l-0.08-0.07l0,0l0,0l-2.97-2.97l-7.12-7.14
			c-0.71-0.7-1.63-1.06-2.55-1.06c-0.93,0-1.85,0.35-2.55,1.06c-1.41,1.41-1.41,3.7,0,5.11l7.58,7.6l-7.56,7.55v0
			c-1.41,1.41-1.41,3.7,0.01,5.11c0.71,0.7,1.63,1.06,2.56,1.05c0.93,0,1.85-0.35,2.55-1.06l7.11-7.1L105.8,72.95L105.8,72.95z
			 M84.01,53.07c2.12,0,3.82-1.8,3.82-3.92c0-1.98-1.8-3.73-3.83-3.72c-2.03,0-3.82,1.8-3.82,3.73
			C80.19,51.23,81.98,53.07,84.01,53.07 M87.6,57.17c0-0.11-0.01-0.21-0.01-0.31l-7.11,0.01c-0.01,0.1-0.01,0.2-0.01,0.31
			l0.02,22.99c0,2.4,1.49,4,3.57,4c2.08,0,3.57-1.6,3.57-4L87.6,57.17z M55.38,61.38c2.9,0,4.73,1.98,4.63,5.32l-9.84,0.01
			C50.54,63.49,52.53,61.39,55.38,61.38 M63.37,77.87L63.37,77.87c-1.71,0.57-3.89,0.93-5.93,0.93c-4.95,0.01-7.42-2.41-7.37-7.41
			l16.56-0.02c0.16-1.13,0.21-2.2,0.21-3.12c-0.01-6.61-3.45-11.93-11.25-11.92c-8.01,0.01-12.52,6.03-12.51,14.21
			c0.01,9.41,4.75,13.65,13.24,13.65c2.66,0,6.32-0.58,8.61-1.24l0,0l0.23-0.09c1.52-0.59,2.22-1.92,1.78-3.33
			C66.47,78.06,65.04,77.36,63.37,77.87 M38.25,80.34L38.25,80.34l-0.01-18.08l3.94,0v0c1.75-0.02,2.91-1.12,2.9-2.65
			c0-1.53-1.17-2.65-2.91-2.66v0l-3.94,0V56.3c0-3.55,1.34-5.11,4.35-5.11c1.02,0,2.26,0.1,3.33,0.48l0.48-5.65
			c-1.4-0.32-2.9-0.43-4.36-0.43c-7.31,0.01-10.64,3.56-10.63,10.82l0,0.53l-2.7,0c-1.77,0-2.95,1.12-2.95,2.67
			c0,1.55,1.18,2.65,2.95,2.65l2.7,0l0.02,18.08c0,2.27,1.43,3.79,3.42,3.79C36.83,84.13,38.25,82.62,38.25,80.34 M76.51,49.46
			c0-2.42-1.52-4.03-3.63-4.03c-2.12,0-3.63,1.62-3.62,4.03l0.04,34.36l7.26-0.01L76.51,49.46z"/>
	</g>
        <g>
		<linearGradient id="SVGID_3_" gradientUnits="userSpaceOnUse" x1="16.4985" y1="114.5222" x2="97.0115"
                        y2="-4.8432">
			<stop offset="0" style="stop-color:#410C2C"/>
            <stop offset="0.0744" style="stop-color:#4B122F"/>
            <stop offset="0.2012" style="stop-color:#662138"/>
            <stop offset="0.3649" style="stop-color:#923A46"/>
            <stop offset="0.5572" style="stop-color:#CE5C59"/>
            <stop offset="0.6449" style="stop-color:#EC6D63"/>
            <stop offset="0.8018" style="stop-color:#EC6D63"/>
            <stop offset="0.8901" style="stop-color:#9E414A"/>
            <stop offset="1" style="stop-color:#410C2C"/>
		</linearGradient>
            <path class="st2" d="M31.76,94.17c-0.22-0.22-0.32-0.53-0.32-0.94v-5.79l1.2-0.13v5.89c0,0.23,0.09,0.35,0.28,0.35
			c0.09,0,0.19-0.02,0.28-0.05l0.25,0.84c-0.25,0.11-0.51,0.17-0.79,0.17C32.27,94.51,31.97,94.4,31.76,94.17z"/>
            <linearGradient id="SVGID_4_" gradientUnits="userSpaceOnUse" x1="17.5" y1="113.4186" x2="93.4562"
                            y2="0.8089">
			<stop offset="0" style="stop-color:#410C2C"/>
                <stop offset="0.0744" style="stop-color:#4B122F"/>
                <stop offset="0.2012" style="stop-color:#662138"/>
                <stop offset="0.3649" style="stop-color:#923A46"/>
                <stop offset="0.5572" style="stop-color:#CE5C59"/>
                <stop offset="0.6449" style="stop-color:#EC6D63"/>
                <stop offset="0.8018" style="stop-color:#EC6D63"/>
                <stop offset="0.8901" style="stop-color:#9E414A"/>
                <stop offset="1" style="stop-color:#410C2C"/>
		</linearGradient>
            <path class="st3" d="M35,87.45c0.13,0.13,0.2,0.29,0.2,0.48c0,0.1-0.02,0.2-0.05,0.31c-0.03,0.11-0.09,0.25-0.17,0.42l-0.61,1.27
			H33.7l0.38-1.44c-0.2-0.14-0.3-0.32-0.3-0.56c0-0.19,0.07-0.35,0.2-0.48c0.14-0.13,0.31-0.19,0.51-0.19
			C34.7,87.26,34.86,87.33,35,87.45z"/>
            <linearGradient id="SVGID_5_" gradientUnits="userSpaceOnUse" x1="21.6283" y1="116.3836" x2="96.2623"
                            y2="5.7343">
			<stop offset="0" style="stop-color:#410C2C"/>
                <stop offset="0.0744" style="stop-color:#4B122F"/>
                <stop offset="0.2012" style="stop-color:#662138"/>
                <stop offset="0.3649" style="stop-color:#923A46"/>
                <stop offset="0.5572" style="stop-color:#CE5C59"/>
                <stop offset="0.6449" style="stop-color:#EC6D63"/>
                <stop offset="0.8018" style="stop-color:#EC6D63"/>
                <stop offset="0.8901" style="stop-color:#9E414A"/>
                <stop offset="1" style="stop-color:#410C2C"/>
		</linearGradient>
            <path class="st4" d="M39.91,93.48c0.06,0.09,0.15,0.16,0.28,0.21l-0.25,0.79c-0.28-0.02-0.51-0.09-0.69-0.2
			c-0.18-0.11-0.31-0.28-0.41-0.51c-0.17,0.25-0.38,0.43-0.63,0.56c-0.25,0.12-0.53,0.18-0.85,0.18c-0.49,0-0.88-0.14-1.17-0.42
			c-0.29-0.28-0.43-0.65-0.43-1.1c0-0.54,0.19-0.95,0.58-1.23c0.39-0.28,0.94-0.43,1.67-0.43h0.62v-0.28c0-0.32-0.07-0.54-0.22-0.67
			c-0.15-0.13-0.38-0.19-0.71-0.19c-0.36,0-0.8,0.09-1.31,0.26l-0.28-0.81c0.62-0.24,1.21-0.36,1.79-0.36c1.26,0,1.9,0.57,1.9,1.7
			v2.07C39.82,93.25,39.85,93.39,39.91,93.48z M38.64,93.03v-1h-0.49c-0.77,0-1.16,0.29-1.16,0.86c0,0.24,0.06,0.42,0.18,0.55
			c0.12,0.13,0.29,0.2,0.52,0.2C38.09,93.64,38.41,93.43,38.64,93.03z"/>
            <linearGradient id="SVGID_6_" gradientUnits="userSpaceOnUse" x1="24.9287" y1="119.7736" x2="100.2326"
                            y2="8.131">
			<stop offset="0" style="stop-color:#410C2C"/>
                <stop offset="0.0744" style="stop-color:#4B122F"/>
                <stop offset="0.2012" style="stop-color:#662138"/>
                <stop offset="0.3649" style="stop-color:#923A46"/>
                <stop offset="0.5572" style="stop-color:#CE5C59"/>
                <stop offset="0.6449" style="stop-color:#EC6D63"/>
                <stop offset="0.8018" style="stop-color:#EC6D63"/>
                <stop offset="0.8901" style="stop-color:#9E414A"/>
                <stop offset="1" style="stop-color:#410C2C"/>
		</linearGradient>
            <path class="st5" d="M45.47,89.68c-0.32,0.11-0.79,0.17-1.43,0.17c0.31,0.14,0.53,0.31,0.68,0.51c0.15,0.2,0.22,0.46,0.22,0.76
			c0,0.32-0.08,0.61-0.24,0.86c-0.16,0.25-0.39,0.45-0.69,0.59c-0.3,0.14-0.66,0.21-1.06,0.21c-0.22,0-0.42-0.03-0.59-0.07
			c-0.14,0.09-0.21,0.21-0.21,0.36c0,0.23,0.2,0.35,0.6,0.35h0.76c0.36,0,0.68,0.06,0.95,0.18c0.27,0.12,0.48,0.28,0.63,0.5
			c0.15,0.21,0.22,0.46,0.22,0.72c0,0.5-0.21,0.89-0.63,1.16c-0.43,0.28-1.04,0.42-1.83,0.42c-0.57,0-1.02-0.06-1.35-0.18
			c-0.33-0.12-0.56-0.29-0.7-0.51c-0.14-0.22-0.2-0.51-0.2-0.86h1.07c0,0.17,0.03,0.31,0.1,0.41c0.07,0.1,0.19,0.17,0.36,0.22
			c0.17,0.05,0.42,0.07,0.74,0.07c0.46,0,0.78-0.06,0.96-0.17c0.19-0.11,0.28-0.27,0.28-0.49c0-0.19-0.07-0.33-0.21-0.43
			c-0.14-0.1-0.35-0.15-0.63-0.15h-0.75c-0.47,0-0.82-0.09-1.06-0.27c-0.24-0.18-0.36-0.41-0.36-0.68c0-0.17,0.05-0.34,0.15-0.5
			c0.1-0.16,0.24-0.3,0.43-0.41c-0.3-0.16-0.52-0.35-0.66-0.58c-0.14-0.23-0.21-0.5-0.21-0.82c0-0.36,0.09-0.67,0.26-0.93
			c0.17-0.27,0.42-0.48,0.73-0.62c0.31-0.15,0.66-0.22,1.06-0.22c0.52,0.01,0.95-0.03,1.27-0.12c0.32-0.09,0.67-0.23,1.04-0.43
			L45.47,89.68z M42.25,90.35c-0.15,0.17-0.23,0.4-0.23,0.69c0,0.3,0.08,0.54,0.24,0.71c0.15,0.17,0.37,0.26,0.64,0.26
			c0.29,0,0.51-0.09,0.65-0.26c0.15-0.17,0.22-0.41,0.22-0.72c0-0.62-0.3-0.93-0.9-0.93C42.62,90.09,42.4,90.18,42.25,90.35z"/>
            <linearGradient id="SVGID_7_" gradientUnits="userSpaceOnUse" x1="27.7148" y1="122.1212" x2="102.6447"
                            y2="11.0331">
			<stop offset="0" style="stop-color:#410C2C"/>
                <stop offset="0.0744" style="stop-color:#4B122F"/>
                <stop offset="0.2012" style="stop-color:#662138"/>
                <stop offset="0.3649" style="stop-color:#923A46"/>
                <stop offset="0.5572" style="stop-color:#CE5C59"/>
                <stop offset="0.6449" style="stop-color:#EC6D63"/>
                <stop offset="0.8018" style="stop-color:#EC6D63"/>
                <stop offset="0.8901" style="stop-color:#9E414A"/>
                <stop offset="1" style="stop-color:#410C2C"/>
		</linearGradient>
            <path class="st6" d="M50.04,92.26h-3.1c0.04,0.48,0.16,0.82,0.37,1.03c0.21,0.21,0.49,0.31,0.84,0.31c0.22,0,0.43-0.04,0.62-0.11
			c0.19-0.07,0.4-0.18,0.62-0.33l0.49,0.68c-0.55,0.44-1.16,0.66-1.83,0.66c-0.75,0-1.33-0.23-1.74-0.69
			c-0.41-0.46-0.61-1.09-0.61-1.89c0-0.5,0.09-0.96,0.26-1.36c0.17-0.4,0.43-0.72,0.76-0.94c0.33-0.23,0.72-0.34,1.18-0.34
			c0.69,0,1.23,0.22,1.61,0.66c0.38,0.44,0.57,1.05,0.57,1.84C50.07,91.84,50.06,92,50.04,92.26z M48.88,91.43
			c0-0.87-0.32-1.3-0.96-1.3c-0.29,0-0.52,0.11-0.69,0.32c-0.17,0.21-0.26,0.56-0.29,1.03h1.94V91.43z"/>
            <linearGradient id="SVGID_8_" gradientUnits="userSpaceOnUse" x1="31.1043" y1="124.5966" x2="105.1598"
                            y2="14.8049">
			<stop offset="0" style="stop-color:#410C2C"/>
                <stop offset="0.0744" style="stop-color:#4B122F"/>
                <stop offset="0.2012" style="stop-color:#662138"/>
                <stop offset="0.3649" style="stop-color:#923A46"/>
                <stop offset="0.5572" style="stop-color:#CE5C59"/>
                <stop offset="0.6449" style="stop-color:#EC6D63"/>
                <stop offset="0.8018" style="stop-color:#EC6D63"/>
                <stop offset="0.8901" style="stop-color:#9E414A"/>
                <stop offset="1" style="stop-color:#410C2C"/>
		</linearGradient>
            <path class="st7" d="M54.81,89.68c0.25,0.26,0.37,0.63,0.37,1.11v3.58h-1.2v-3.39c0-0.29-0.05-0.5-0.15-0.62
			c-0.1-0.12-0.25-0.18-0.45-0.18c-0.2,0-0.39,0.06-0.56,0.19c-0.17,0.13-0.32,0.31-0.48,0.56v3.44h-1.19v-4.94h1.04l0.09,0.64
			c0.41-0.52,0.91-0.78,1.51-0.78C54.22,89.28,54.56,89.41,54.81,89.68z"/>
            <linearGradient id="SVGID_9_" gradientUnits="userSpaceOnUse" x1="34.3548" y1="127.7943" x2="108.7277"
                            y2="17.5319">
			<stop offset="0" style="stop-color:#410C2C"/>
                <stop offset="0.0744" style="stop-color:#4B122F"/>
                <stop offset="0.2012" style="stop-color:#662138"/>
                <stop offset="0.3649" style="stop-color:#923A46"/>
                <stop offset="0.5572" style="stop-color:#CE5C59"/>
                <stop offset="0.6449" style="stop-color:#EC6D63"/>
                <stop offset="0.8018" style="stop-color:#EC6D63"/>
                <stop offset="0.8901" style="stop-color:#9E414A"/>
                <stop offset="1" style="stop-color:#410C2C"/>
		</linearGradient>
            <path class="st8" d="M59.44,89.42c0.26,0.09,0.5,0.24,0.73,0.44l-0.53,0.72c-0.17-0.12-0.33-0.21-0.49-0.27
			c-0.15-0.06-0.33-0.08-0.51-0.08c-0.74,0-1.11,0.56-1.11,1.69c0,0.57,0.1,0.99,0.29,1.24c0.19,0.25,0.47,0.38,0.82,0.38
			c0.17,0,0.33-0.03,0.48-0.08c0.15-0.06,0.32-0.15,0.52-0.27l0.53,0.76c-0.47,0.38-1,0.57-1.6,0.57c-0.48,0-0.89-0.1-1.23-0.31
			c-0.35-0.21-0.62-0.51-0.8-0.89c-0.19-0.39-0.28-0.84-0.28-1.36s0.09-0.99,0.28-1.39c0.19-0.4,0.46-0.71,0.8-0.93
			s0.76-0.33,1.22-0.33C58.89,89.28,59.18,89.33,59.44,89.42z"/>
            <linearGradient id="SVGID_10_" gradientUnits="userSpaceOnUse" x1="36.8965" y1="130.5102" x2="111.8263"
                            y2="19.4221">
			<stop offset="0" style="stop-color:#410C2C"/>
                <stop offset="0.0744" style="stop-color:#4B122F"/>
                <stop offset="0.2012" style="stop-color:#662138"/>
                <stop offset="0.3649" style="stop-color:#923A46"/>
                <stop offset="0.5572" style="stop-color:#CE5C59"/>
                <stop offset="0.6449" style="stop-color:#EC6D63"/>
                <stop offset="0.8018" style="stop-color:#EC6D63"/>
                <stop offset="0.8901" style="stop-color:#9E414A"/>
                <stop offset="1" style="stop-color:#410C2C"/>
		</linearGradient>
            <path class="st9" d="M64.88,92.26h-3.1c0.04,0.48,0.16,0.82,0.37,1.03c0.21,0.21,0.49,0.31,0.84,0.31c0.22,0,0.43-0.04,0.62-0.11
			c0.19-0.07,0.4-0.18,0.62-0.33l0.49,0.68c-0.55,0.44-1.16,0.66-1.83,0.66c-0.75,0-1.33-0.23-1.74-0.69
			c-0.41-0.46-0.61-1.09-0.61-1.89c0-0.5,0.09-0.96,0.26-1.36c0.17-0.4,0.43-0.72,0.76-0.94c0.33-0.23,0.72-0.34,1.18-0.34
			c0.69,0,1.23,0.22,1.61,0.66c0.38,0.44,0.57,1.05,0.57,1.84C64.91,91.84,64.9,92,64.88,92.26z M63.72,91.43
			c0-0.87-0.32-1.3-0.96-1.3c-0.29,0-0.52,0.11-0.69,0.32c-0.17,0.21-0.26,0.56-0.29,1.03h1.94V91.43z"/>
            <linearGradient id="SVGID_11_" gradientUnits="userSpaceOnUse" x1="41.4938" y1="135.2421" x2="117.0772"
                            y2="23.185">
			<stop offset="0" style="stop-color:#410C2C"/>
                <stop offset="0.0744" style="stop-color:#4B122F"/>
                <stop offset="0.2012" style="stop-color:#662138"/>
                <stop offset="0.3649" style="stop-color:#923A46"/>
                <stop offset="0.5572" style="stop-color:#CE5C59"/>
                <stop offset="0.6449" style="stop-color:#EC6D63"/>
                <stop offset="0.8018" style="stop-color:#EC6D63"/>
                <stop offset="0.8901" style="stop-color:#9E414A"/>
                <stop offset="1" style="stop-color:#410C2C"/>
		</linearGradient>
            <path class="st10" d="M72.48,87.44v6.93h-1.06l-0.08-0.63c-0.16,0.24-0.35,0.42-0.59,0.56c-0.24,0.14-0.51,0.21-0.82,0.21
			c-0.61,0-1.07-0.23-1.39-0.7c-0.32-0.47-0.49-1.1-0.49-1.91c0-0.5,0.08-0.95,0.24-1.35c0.16-0.4,0.39-0.71,0.7-0.93
			c0.3-0.22,0.65-0.34,1.05-0.34c0.47,0,0.89,0.18,1.24,0.53v-2.5L72.48,87.44z M70.82,93.45c0.16-0.1,0.31-0.26,0.46-0.48V90.7
			c-0.14-0.17-0.29-0.31-0.43-0.39c-0.15-0.09-0.32-0.13-0.51-0.13c-0.32,0-0.57,0.14-0.75,0.43c-0.18,0.28-0.27,0.71-0.27,1.29
			c0,0.61,0.08,1.05,0.24,1.31c0.16,0.26,0.4,0.4,0.71,0.4C70.47,93.6,70.66,93.55,70.82,93.45z"/>
            <linearGradient id="SVGID_12_" gradientUnits="userSpaceOnUse" x1="44.9788" y1="137.8948" x2="119.9087"
                            y2="26.8067">
			<stop offset="0" style="stop-color:#410C2C"/>
                <stop offset="0.0744" style="stop-color:#4B122F"/>
                <stop offset="0.2012" style="stop-color:#662138"/>
                <stop offset="0.3649" style="stop-color:#923A46"/>
                <stop offset="0.5572" style="stop-color:#CE5C59"/>
                <stop offset="0.6449" style="stop-color:#EC6D63"/>
                <stop offset="0.8018" style="stop-color:#EC6D63"/>
                <stop offset="0.8901" style="stop-color:#9E414A"/>
                <stop offset="1" style="stop-color:#410C2C"/>
		</linearGradient>
            <path class="st11" d="M77.94,92.26h-3.1c0.04,0.48,0.16,0.82,0.37,1.03c0.21,0.21,0.49,0.31,0.84,0.31c0.22,0,0.43-0.04,0.62-0.11
			c0.19-0.07,0.4-0.18,0.62-0.33l0.49,0.68c-0.55,0.44-1.16,0.66-1.83,0.66c-0.75,0-1.33-0.23-1.74-0.69
			c-0.41-0.46-0.61-1.09-0.61-1.89c0-0.5,0.09-0.96,0.26-1.36c0.17-0.4,0.43-0.72,0.76-0.94c0.33-0.23,0.72-0.34,1.18-0.34
			c0.69,0,1.23,0.22,1.61,0.66c0.38,0.44,0.57,1.05,0.57,1.84C77.97,91.84,77.96,92,77.94,92.26z M76.79,91.43
			c0-0.87-0.32-1.3-0.96-1.3c-0.29,0-0.52,0.11-0.69,0.32c-0.17,0.21-0.26,0.56-0.29,1.03h1.94V91.43z"/>
            <linearGradient id="SVGID_13_" gradientUnits="userSpaceOnUse" x1="49.0135" y1="142.462" x2="124.6219"
                            y2="30.368">
			<stop offset="0" style="stop-color:#410C2C"/>
                <stop offset="0.0744" style="stop-color:#4B122F"/>
                <stop offset="0.2012" style="stop-color:#662138"/>
                <stop offset="0.3649" style="stop-color:#923A46"/>
                <stop offset="0.5572" style="stop-color:#CE5C59"/>
                <stop offset="0.6449" style="stop-color:#EC6D63"/>
                <stop offset="0.8018" style="stop-color:#EC6D63"/>
                <stop offset="0.8901" style="stop-color:#9E414A"/>
                <stop offset="1" style="stop-color:#410C2C"/>
		</linearGradient>
            <path class="st12" d="M85.33,89.96c0.3,0.45,0.45,1.09,0.45,1.92c0,0.51-0.08,0.96-0.23,1.36c-0.15,0.4-0.38,0.71-0.67,0.93
			c-0.29,0.22-0.65,0.34-1.05,0.34c-0.52,0-0.94-0.18-1.24-0.54v2.31l-1.2,0.13v-6.98h1.05l0.07,0.61c0.19-0.25,0.41-0.44,0.66-0.56
			c0.25-0.12,0.51-0.19,0.78-0.19C84.57,89.28,85.03,89.51,85.33,89.96z M84.52,91.89c0-0.6-0.08-1.04-0.24-1.31
			c-0.15-0.27-0.39-0.4-0.7-0.4c-0.2,0-0.39,0.06-0.56,0.18c-0.17,0.12-0.32,0.28-0.45,0.49v2.22c0.23,0.34,0.53,0.51,0.91,0.51
			C84.18,93.59,84.52,93.02,84.52,91.89z"/>
            <linearGradient id="SVGID_14_" gradientUnits="userSpaceOnUse" x1="53.3195" y1="144.6511" x2="127.4397"
                            y2="34.7635">
			<stop offset="0" style="stop-color:#410C2C"/>
                <stop offset="0.0744" style="stop-color:#4B122F"/>
                <stop offset="0.2012" style="stop-color:#662138"/>
                <stop offset="0.3649" style="stop-color:#923A46"/>
                <stop offset="0.5572" style="stop-color:#CE5C59"/>
                <stop offset="0.6449" style="stop-color:#EC6D63"/>
                <stop offset="0.8018" style="stop-color:#EC6D63"/>
                <stop offset="0.8901" style="stop-color:#9E414A"/>
                <stop offset="1" style="stop-color:#410C2C"/>
		</linearGradient>
            <path class="st13" d="M90.9,94.37h-1.04l-0.07-0.69c-0.18,0.28-0.39,0.49-0.64,0.63c-0.25,0.14-0.54,0.21-0.87,0.21
			c-0.44,0-0.78-0.14-1.02-0.41c-0.24-0.27-0.36-0.65-0.36-1.13v-3.55h1.2v3.4c0,0.28,0.05,0.48,0.14,0.6
			c0.1,0.12,0.25,0.18,0.46,0.18c0.38,0,0.71-0.23,1-0.7v-3.48h1.2V94.37z"/>
            <linearGradient id="SVGID_15_" gradientUnits="userSpaceOnUse" x1="53.4265" y1="151.1735" x2="133.0615"
                            y2="33.1097">
			<stop offset="0" style="stop-color:#410C2C"/>
                <stop offset="0.0744" style="stop-color:#4B122F"/>
                <stop offset="0.2012" style="stop-color:#662138"/>
                <stop offset="0.3649" style="stop-color:#923A46"/>
                <stop offset="0.5572" style="stop-color:#CE5C59"/>
                <stop offset="0.6449" style="stop-color:#EC6D63"/>
                <stop offset="0.8018" style="stop-color:#EC6D63"/>
                <stop offset="0.8901" style="stop-color:#9E414A"/>
                <stop offset="1" style="stop-color:#410C2C"/>
		</linearGradient>
            <path class="st14" d="M96.25,89.97c0.32,0.46,0.49,1.1,0.49,1.92c0,0.51-0.08,0.96-0.24,1.36c-0.16,0.4-0.39,0.7-0.68,0.92
			s-0.64,0.33-1.04,0.33c-0.27,0-0.51-0.06-0.73-0.17c-0.22-0.11-0.41-0.27-0.58-0.48l-0.07,0.5h-1.06v-6.93l1.2-0.13v2.67
			c0.16-0.22,0.36-0.4,0.59-0.52c0.23-0.12,0.49-0.18,0.77-0.18C95.48,89.28,95.93,89.51,96.25,89.97z M95.21,93.19
			c0.18-0.28,0.27-0.71,0.27-1.3c0-0.62-0.09-1.06-0.25-1.32c-0.17-0.26-0.41-0.39-0.71-0.39c-0.38,0-0.71,0.22-0.98,0.67v2.19
			c0.11,0.18,0.24,0.32,0.4,0.42c0.16,0.1,0.33,0.15,0.52,0.15C94.78,93.61,95.03,93.47,95.21,93.19z"/>
            <linearGradient id="SVGID_16_" gradientUnits="userSpaceOnUse" x1="55.7144" y1="154.8714" x2="136.2247"
                            y2="35.51">
			<stop offset="0" style="stop-color:#410C2C"/>
                <stop offset="0.0744" style="stop-color:#4B122F"/>
                <stop offset="0.2012" style="stop-color:#662138"/>
                <stop offset="0.3649" style="stop-color:#923A46"/>
                <stop offset="0.5572" style="stop-color:#CE5C59"/>
                <stop offset="0.6449" style="stop-color:#EC6D63"/>
                <stop offset="0.8018" style="stop-color:#EC6D63"/>
                <stop offset="0.8901" style="stop-color:#9E414A"/>
                <stop offset="1" style="stop-color:#410C2C"/>
		</linearGradient>
            <path class="st15" d="M98.19,94.17c-0.21-0.22-0.32-0.53-0.32-0.94v-5.79l1.2-0.13v5.89c0,0.23,0.09,0.35,0.28,0.35
			c0.09,0,0.19-0.02,0.28-0.05l0.25,0.84c-0.25,0.11-0.51,0.17-0.79,0.17C98.7,94.51,98.4,94.4,98.19,94.17z"/>
            <linearGradient id="SVGID_17_" gradientUnits="userSpaceOnUse" x1="57.364" y1="155.8637" x2="137.3273"
                            y2="37.3132">
			<stop offset="0" style="stop-color:#410C2C"/>
                <stop offset="0.0744" style="stop-color:#4B122F"/>
                <stop offset="0.2012" style="stop-color:#662138"/>
                <stop offset="0.3649" style="stop-color:#923A46"/>
                <stop offset="0.5572" style="stop-color:#CE5C59"/>
                <stop offset="0.6449" style="stop-color:#EC6D63"/>
                <stop offset="0.8018" style="stop-color:#EC6D63"/>
                <stop offset="0.8901" style="stop-color:#9E414A"/>
                <stop offset="1" style="stop-color:#410C2C"/>
		</linearGradient>
            <path class="st16" d="M101.81,87.13c0.14,0.14,0.21,0.31,0.21,0.52c0,0.21-0.07,0.38-0.21,0.51c-0.14,0.14-0.32,0.2-0.55,0.2
			c-0.22,0-0.4-0.07-0.54-0.2c-0.14-0.14-0.21-0.31-0.21-0.51c0-0.21,0.07-0.38,0.21-0.52c0.14-0.14,0.32-0.21,0.54-0.21
			C101.48,86.92,101.67,86.99,101.81,87.13z M101.87,89.42v4.94h-1.2v-4.94H101.87z"/>
            <linearGradient id="SVGID_18_" gradientUnits="userSpaceOnUse" x1="63.4013" y1="154.0159" x2="137.7742"
                            y2="43.7535">
			<stop offset="0" style="stop-color:#410C2C"/>
                <stop offset="0.0744" style="stop-color:#4B122F"/>
                <stop offset="0.2012" style="stop-color:#662138"/>
                <stop offset="0.3649" style="stop-color:#923A46"/>
                <stop offset="0.5572" style="stop-color:#CE5C59"/>
                <stop offset="0.6449" style="stop-color:#EC6D63"/>
                <stop offset="0.8018" style="stop-color:#EC6D63"/>
                <stop offset="0.8901" style="stop-color:#9E414A"/>
                <stop offset="1" style="stop-color:#410C2C"/>
		</linearGradient>
            <path class="st17" d="M106.17,89.42c0.26,0.09,0.5,0.24,0.73,0.44l-0.53,0.72c-0.17-0.12-0.33-0.21-0.49-0.27
			c-0.15-0.06-0.33-0.08-0.51-0.08c-0.74,0-1.11,0.56-1.11,1.69c0,0.57,0.1,0.99,0.29,1.24c0.19,0.25,0.47,0.38,0.82,0.38
			c0.17,0,0.33-0.03,0.48-0.08c0.15-0.06,0.32-0.15,0.52-0.27l0.53,0.76c-0.47,0.38-1,0.57-1.6,0.57c-0.48,0-0.89-0.1-1.23-0.31
			c-0.35-0.21-0.62-0.51-0.8-0.89c-0.19-0.39-0.28-0.84-0.28-1.36s0.09-0.99,0.28-1.39c0.19-0.4,0.46-0.71,0.8-0.93
			s0.76-0.33,1.22-0.33C105.62,89.28,105.91,89.33,106.17,89.42z"/>
            <linearGradient id="SVGID_19_" gradientUnits="userSpaceOnUse" x1="61.5766" y1="160.1486" x2="141.5399"
                            y2="41.5981">
			<stop offset="0" style="stop-color:#410C2C"/>
                <stop offset="0.0744" style="stop-color:#4B122F"/>
                <stop offset="0.2012" style="stop-color:#662138"/>
                <stop offset="0.3649" style="stop-color:#923A46"/>
                <stop offset="0.5572" style="stop-color:#CE5C59"/>
                <stop offset="0.6449" style="stop-color:#EC6D63"/>
                <stop offset="0.8018" style="stop-color:#EC6D63"/>
                <stop offset="0.8901" style="stop-color:#9E414A"/>
                <stop offset="1" style="stop-color:#410C2C"/>
		</linearGradient>
            <path class="st18" d="M108.91,87.13c0.14,0.14,0.21,0.31,0.21,0.52c0,0.21-0.07,0.38-0.21,0.51c-0.14,0.14-0.32,0.2-0.55,0.2
			c-0.22,0-0.4-0.07-0.54-0.2c-0.14-0.14-0.21-0.31-0.21-0.51c0-0.21,0.07-0.38,0.21-0.52c0.14-0.14,0.32-0.21,0.54-0.21
			C108.59,86.92,108.77,86.99,108.91,87.13z M108.97,89.42v4.94h-1.2v-4.94H108.97z"/>
            <linearGradient id="SVGID_20_" gradientUnits="userSpaceOnUse" x1="63.5879" y1="162.7931" x2="144.0568"
                            y2="43.493">
			<stop offset="0" style="stop-color:#410C2C"/>
                <stop offset="0.0744" style="stop-color:#4B122F"/>
                <stop offset="0.2012" style="stop-color:#662138"/>
                <stop offset="0.3649" style="stop-color:#923A46"/>
                <stop offset="0.5572" style="stop-color:#CE5C59"/>
                <stop offset="0.6449" style="stop-color:#EC6D63"/>
                <stop offset="0.8018" style="stop-color:#EC6D63"/>
                <stop offset="0.8901" style="stop-color:#9E414A"/>
                <stop offset="1" style="stop-color:#410C2C"/>
		</linearGradient>
            <path class="st19" d="M113.24,94.13c-0.17,0.12-0.37,0.22-0.58,0.28c-0.21,0.06-0.43,0.09-0.66,0.09
			c-0.49-0.01-0.85-0.14-1.11-0.42c-0.25-0.27-0.38-0.67-0.38-1.2v-2.61h-0.77v-0.86h0.77v-1.09l1.2-0.14v1.23h1.15l-0.12,0.86
			h-1.03v2.58c0,0.24,0.04,0.42,0.13,0.52s0.22,0.16,0.4,0.16c0.18,0,0.38-0.06,0.59-0.18L113.24,94.13z"/>
            <linearGradient id="SVGID_21_" gradientUnits="userSpaceOnUse" x1="67.3272" y1="163.0404" x2="145.5005"
                            y2="47.1437">
			<stop offset="0" style="stop-color:#410C2C"/>
                <stop offset="0.0744" style="stop-color:#4B122F"/>
                <stop offset="0.2012" style="stop-color:#662138"/>
                <stop offset="0.3649" style="stop-color:#923A46"/>
                <stop offset="0.5572" style="stop-color:#CE5C59"/>
                <stop offset="0.6449" style="stop-color:#EC6D63"/>
                <stop offset="0.8018" style="stop-color:#EC6D63"/>
                <stop offset="0.8901" style="stop-color:#9E414A"/>
                <stop offset="1" style="stop-color:#410C2C"/>
		</linearGradient>
            <path class="st20" d="M117.78,92.26h-3.1c0.04,0.48,0.16,0.82,0.37,1.03c0.21,0.21,0.49,0.31,0.84,0.31
			c0.22,0,0.43-0.04,0.62-0.11c0.19-0.07,0.4-0.18,0.62-0.33l0.49,0.68c-0.55,0.44-1.16,0.66-1.83,0.66c-0.75,0-1.33-0.23-1.74-0.69
			c-0.41-0.46-0.61-1.09-0.61-1.89c0-0.5,0.09-0.96,0.26-1.36c0.17-0.4,0.43-0.72,0.76-0.94c0.33-0.23,0.72-0.34,1.18-0.34
			c0.69,0,1.23,0.22,1.61,0.66c0.38,0.44,0.57,1.05,0.57,1.84C117.81,91.84,117.8,92,117.78,92.26z M116.37,86.7l0.49,0.94
			l-2.11,0.84l-0.34-0.61L116.37,86.7z M116.62,91.43c0-0.87-0.32-1.3-0.96-1.3c-0.29,0-0.52,0.11-0.69,0.32
			c-0.17,0.21-0.26,0.56-0.29,1.03h1.94V91.43z"/>
	</g>
        <g>
		<linearGradient id="SVGID_22_" gradientUnits="userSpaceOnUse" x1="33.9471" y1="127.1537" x2="105.85"
                        y2="20.5532">
			<stop offset="0" style="stop-color:#410C2C"/>
            <stop offset="0.0744" style="stop-color:#4B122F"/>
            <stop offset="0.2012" style="stop-color:#662138"/>
            <stop offset="0.3649" style="stop-color:#923A46"/>
            <stop offset="0.5572" style="stop-color:#CE5C59"/>
            <stop offset="0.6449" style="stop-color:#EC6D63"/>
            <stop offset="0.8018" style="stop-color:#EC6D63"/>
            <stop offset="0.8901" style="stop-color:#9E414A"/>
            <stop offset="1" style="stop-color:#410C2C"/>
		</linearGradient>
            <path class="st21"
                  d="M43.56,116.15l-3.52,5.27l-1.35-0.9l2.63-3.94l-1.56-0.06l0.01-1.31l2.55,0.12L43.56,116.15z"/>
            <linearGradient id="SVGID_23_" gradientUnits="userSpaceOnUse" x1="38.6838" y1="131.1904" x2="110.8794"
                            y2="24.1561">
			<stop offset="0" style="stop-color:#410C2C"/>
                <stop offset="0.0744" style="stop-color:#4B122F"/>
                <stop offset="0.2012" style="stop-color:#662138"/>
                <stop offset="0.3649" style="stop-color:#923A46"/>
                <stop offset="0.5572" style="stop-color:#CE5C59"/>
                <stop offset="0.6449" style="stop-color:#EC6D63"/>
                <stop offset="0.8018" style="stop-color:#EC6D63"/>
                <stop offset="0.8901" style="stop-color:#9E414A"/>
                <stop offset="1" style="stop-color:#410C2C"/>
		</linearGradient>
            <path class="st22" d="M48.51,119.51c0.17,0.6,0.08,1.22-0.27,1.88c-0.4,0.76-0.86,1.32-1.38,1.69c-0.53,0.37-1.13,0.57-1.83,0.6
			c-0.7,0.03-1.51-0.1-2.44-0.39l0.24-1.17c0.54,0.14,1.01,0.23,1.38,0.25c0.38,0.02,0.72-0.02,1.01-0.12
			c0.29-0.1,0.56-0.28,0.81-0.54c-0.24,0.09-0.47,0.12-0.69,0.11c-0.22-0.01-0.46-0.09-0.71-0.22c-0.29-0.15-0.52-0.37-0.69-0.65
			c-0.17-0.28-0.25-0.6-0.25-0.95c0-0.36,0.1-0.72,0.3-1.1c0.2-0.39,0.47-0.68,0.82-0.88c0.34-0.2,0.72-0.29,1.14-0.29
			c0.42,0.01,0.83,0.12,1.24,0.33C47.91,118.43,48.34,118.91,48.51,119.51z M46.11,120.93c0.17,0,0.34-0.05,0.51-0.14
			c0.19-0.34,0.31-0.61,0.37-0.83c0.06-0.22,0.06-0.39,0.01-0.53c-0.05-0.14-0.17-0.25-0.35-0.35c-0.21-0.11-0.42-0.12-0.61-0.03
			c-0.2,0.09-0.37,0.27-0.52,0.55c-0.32,0.61-0.27,1.02,0.14,1.23C45.79,120.9,45.94,120.94,46.11,120.93z"/>
            <linearGradient id="SVGID_24_" gradientUnits="userSpaceOnUse" x1="43.3345" y1="135.5562" x2="116.2624"
                            y2="27.4363">
			<stop offset="0" style="stop-color:#410C2C"/>
                <stop offset="0.0744" style="stop-color:#4B122F"/>
                <stop offset="0.2012" style="stop-color:#662138"/>
                <stop offset="0.3649" style="stop-color:#923A46"/>
                <stop offset="0.5572" style="stop-color:#CE5C59"/>
                <stop offset="0.6449" style="stop-color:#EC6D63"/>
                <stop offset="0.8018" style="stop-color:#EC6D63"/>
                <stop offset="0.8901" style="stop-color:#9E414A"/>
                <stop offset="1" style="stop-color:#410C2C"/>
		</linearGradient>
            <path class="st23" d="M54.2,121.87c0.24,0.57,0.22,1.21-0.05,1.9c-0.31,0.8-0.7,1.41-1.18,1.84c-0.48,0.43-1.07,0.7-1.75,0.8
			c-0.69,0.1-1.51,0.07-2.47-0.12l0.11-1.19c0.56,0.08,1.02,0.11,1.4,0.09c0.38-0.02,0.71-0.1,0.99-0.23
			c0.28-0.14,0.53-0.34,0.75-0.63c-0.22,0.11-0.45,0.17-0.67,0.19c-0.22,0.01-0.46-0.03-0.72-0.14c-0.31-0.12-0.56-0.31-0.76-0.56
			c-0.2-0.26-0.32-0.57-0.36-0.92c-0.04-0.35,0.02-0.73,0.17-1.12c0.16-0.41,0.39-0.73,0.71-0.96c0.32-0.24,0.68-0.37,1.1-0.41
			c0.42-0.04,0.84,0.03,1.27,0.19C53.49,120.87,53.97,121.3,54.2,121.87z M51.98,123.56c0.17-0.02,0.33-0.09,0.49-0.2
			c0.15-0.36,0.24-0.65,0.27-0.87c0.04-0.22,0.02-0.39-0.05-0.53c-0.07-0.13-0.2-0.23-0.38-0.3c-0.22-0.09-0.43-0.08-0.61,0.03
			c-0.19,0.11-0.34,0.31-0.46,0.61c-0.25,0.64-0.16,1.04,0.27,1.21C51.66,123.56,51.81,123.58,51.98,123.56z"/>
            <linearGradient id="SVGID_25_" gradientUnits="userSpaceOnUse" x1="47.8841" y1="139.5729" x2="120.9479"
                            y2="31.2514">
			<stop offset="0" style="stop-color:#410C2C"/>
                <stop offset="0.0744" style="stop-color:#4B122F"/>
                <stop offset="0.2012" style="stop-color:#662138"/>
                <stop offset="0.3649" style="stop-color:#923A46"/>
                <stop offset="0.5572" style="stop-color:#CE5C59"/>
                <stop offset="0.6449" style="stop-color:#EC6D63"/>
                <stop offset="0.8018" style="stop-color:#EC6D63"/>
                <stop offset="0.8901" style="stop-color:#9E414A"/>
                <stop offset="1" style="stop-color:#410C2C"/>
		</linearGradient>
            <path class="st24" d="M59.16,122.89c0.28,0.25,0.48,0.53,0.57,0.84c0.1,0.31,0.1,0.63,0.01,0.96c-0.09,0.32-0.23,0.6-0.42,0.85
			c-0.19,0.24-0.51,0.51-0.94,0.79c-0.43,0.29-1.04,0.62-1.83,1.01L59,128l-0.5,1.18l-4.09-1.11l0.3-1.12
			c0.91-0.5,1.57-0.89,2.01-1.16c0.44-0.27,0.75-0.51,0.95-0.71c0.2-0.2,0.32-0.42,0.39-0.66c0.06-0.22,0.04-0.42-0.05-0.58
			c-0.09-0.16-0.25-0.27-0.47-0.33c-0.21-0.06-0.41-0.06-0.61,0c-0.19,0.05-0.4,0.17-0.63,0.34l-0.73-1
			c0.35-0.27,0.73-0.46,1.15-0.55c0.42-0.1,0.85-0.08,1.31,0.04C58.5,122.46,58.87,122.64,59.16,122.89z"/>
	</g>
</g>
</svg>
