<?xml version="1.0" encoding="UTF-8" standalone="no"?>
<!-- Created with Inkscape (http://www.inkscape.org/) -->

<svg
   xmlns:dc="http://purl.org/dc/elements/1.1/"
   xmlns:cc="http://creativecommons.org/ns#"
   xmlns:rdf="http://www.w3.org/1999/02/22-rdf-syntax-ns#"
   xmlns:svg="http://www.w3.org/2000/svg"
   xmlns="http://www.w3.org/2000/svg"
   xmlns:sodipodi="http://sodipodi.sourceforge.net/DTD/sodipodi-0.dtd"
   xmlns:inkscape="http://www.inkscape.org/namespaces/inkscape"
   version="1.1"
   id="svg204"
   width="512"
   height="512"
   viewBox="0 0 512 512"
   sodipodi:docname="calameo.svg"
   inkscape:version="0.92.3 (2405546, 2018-03-11)">
  <metadata
     id="metadata210">
    <rdf:RDF>
      <cc:Work
         rdf:about="">
        <dc:format>image/svg+xml</dc:format>
        <dc:type
           rdf:resource="http://purl.org/dc/dcmitype/StillImage" />
        <dc:title></dc:title>
      </cc:Work>
    </rdf:RDF>
  </metadata>
  <defs
     id="defs208" />
  <sodipodi:namedview
     pagecolor="#ffffff"
     bordercolor="#666666"
     borderopacity="1"
     objecttolerance="10"
     gridtolerance="10"
     guidetolerance="10"
     inkscape:pageopacity="0"
     inkscape:pageshadow="2"
     inkscape:window-width="1920"
     inkscape:window-height="1027"
     id="namedview206"
     showgrid="false"
     inkscape:zoom="0.4609375"
     inkscape:cx="256"
     inkscape:cy="256"
     inkscape:window-x="-8"
     inkscape:window-y="-8"
     inkscape:window-maximized="1"
     inkscape:current-layer="svg204" />
  <g
     id="g214"
     transform="translate(2.16949,2.1694961)">
    <path
       style="fill:#fcfcfc"
       d="M 0,256 V 0 H 256 512 V 256 512 H 256 0 Z"
       id="path230"
       inkscape:connector-curvature="0" />
    <path
       style="fill:#a2a5a6"
       d="M 0,256 V 0 H 256 512 V 256 512 H 256 0 Z m 309,185.52536 c 17.22003,-1.75507 46.93281,-6.16912 50.39976,-7.48725 l 2.23727,-0.85061 -0.42484,-25.34375 c -0.23366,-13.93906 -0.76768,-25.71194 -1.18671,-26.16195 -0.41903,-0.45001 -8.13369,-0.10777 -17.14368,0.76053 -39.70976,3.82687 -78.69441,4.70785 -92.38812,2.08781 -24.61576,-4.70977 -36.42372,-20.99956 -36.85962,-50.85009 L 213.5,324.5 l 75.66316,-0.25626 75.66316,-0.25627 0.61019,-3.74373 c 1.52829,-9.37658 2.41382,-43.07966 1.54696,-58.8769 C 365.12519,227.50248 358.62765,204.59312 346.1752,188 334.1074,171.91943 313.62909,161.36613 286.85766,157.4313 272.65135,155.34327 234.9945,155.93217 223,158.42994 c -49.65971,10.34129 -73.18399,41.41752 -78.91798,104.25283 -2.61704,28.67853 -2.03665,63.23729 1.4548,86.62372 2.29564,15.37672 6.92871,31.83383 11.94048,42.41379 14.84565,31.33947 37.63214,46.21019 78.5227,51.2448 10.59891,1.30497 54.5809,0.43755 73,-1.43972 z M 211.31964,281.39058 c -0.33968,-0.88518 -0.34742,-7.74768 -0.0172,-15.25 1.51473,-34.41429 8.93864,-49.14505 27.67795,-54.91951 8.09831,-2.49547 32.41474,-2.37921 40.01962,0.19133 17.76803,6.00582 24,19.89741 24,53.49807 0,10.86963 -0.36865,16.05818 -1.2,16.88953 -0.89724,0.89724 -12.38475,1.2 -45.53138,1.2 -39.82269,0 -44.3942,-0.16368 -44.94898,-1.60942 z"
       id="path228"
       inkscape:connector-curvature="0" />
    <path
       style="fill:#c0d23d"
       d="M 0,256 V 0 H 256 512 V 256 512 H 256 0 Z m 313.5,186.58124 c 18.2897,-2.08811 45.48787,-6.51796 47.90088,-7.80177 1.82267,-0.96973 1.87183,-2.10724 1.1947,-27.6454 -0.38841,-14.64874 -1.01881,-26.94542 -1.40089,-27.32595 -0.38208,-0.38054 -3.84664,-0.29426 -7.69903,0.19173 -34.17519,4.3113 -93.53446,5.85128 -105.75459,2.74363 -16.66974,-4.23922 -26.03717,-13.357 -30.26965,-29.46298 -2.36955,-9.0169 -3.80933,-25.16841 -2.39544,-26.87205 C 216.06217,325.22016 227.93282,325 291.01546,325 c 65.43884,0 74.84218,-0.18664 75.34442,-1.49544 0.31561,-0.82249 1.12438,-11.39888 1.79725,-23.50309 0.9618,-17.30153 0.96368,-26.01649 0.009,-40.75456 -1.84709,-28.50932 -5.34755,-43.7869 -13.83578,-60.38557 -12.32842,-24.10813 -34.59336,-38.17586 -68.17398,-43.07458 -13.17435,-1.92187 -45.34807,-1.59689 -58.65619,0.59247 -51.10504,8.40746 -76.59712,38.27127 -83.92763,98.32068 -3.4504,28.26468 -3.02451,69.82952 0.99185,96.80009 6.51932,43.77835 25.27905,71.99391 56.121,84.40877 8.9405,3.59883 17.1638,5.82712 27.98663,7.58363 11.8779,1.92774 64.95601,1.35761 84.82815,-0.91116 z M 212.32241,279.3978 c -1.06007,-2.76249 1.62687,-31.87955 3.68416,-39.92348 5.80016,-22.67841 16.25253,-29.10375 46.08923,-28.33224 14.03231,0.36284 14.68862,0.47724 21.23861,3.70179 13.32327,6.55902 17.71163,18.1817 17.99347,47.65613 l 0.17212,18 -44.27739,0.26042 c -40.07678,0.23572 -44.33647,0.10645 -44.9002,-1.36262 z"
       id="path226"
       inkscape:connector-curvature="0" />
    <path
       style="fill:#bccd45"
       d="M 0,256 V 0 H 256 512 V 256 512 H 256 0 Z m 313.5,186.58124 c 18.2897,-2.08811 45.48787,-6.51796 47.90088,-7.80177 1.82267,-0.96973 1.87183,-2.10724 1.1947,-27.6454 -0.38841,-14.64874 -1.01881,-26.94542 -1.40089,-27.32595 -0.38208,-0.38054 -3.84664,-0.29426 -7.69903,0.19173 -34.17519,4.3113 -93.53446,5.85128 -105.75459,2.74363 -16.66974,-4.23922 -26.03717,-13.357 -30.26965,-29.46298 -2.36955,-9.0169 -3.80933,-25.16841 -2.39544,-26.87205 C 216.06217,325.22016 227.93282,325 291.01546,325 c 65.43884,0 74.84218,-0.18664 75.34442,-1.49544 0.31561,-0.82249 1.12438,-11.39888 1.79725,-23.50309 0.9618,-17.30153 0.96368,-26.01649 0.009,-40.75456 -1.84709,-28.50932 -5.34755,-43.7869 -13.83578,-60.38557 -12.32842,-24.10813 -34.59336,-38.17586 -68.17398,-43.07458 -13.17435,-1.92187 -45.34807,-1.59689 -58.65619,0.59247 -51.10504,8.40746 -76.59712,38.27127 -83.92763,98.32068 -3.4504,28.26468 -3.02451,69.82952 0.99185,96.80009 6.51932,43.77835 25.27905,71.99391 56.121,84.40877 8.9405,3.59883 17.1638,5.82712 27.98663,7.58363 11.8779,1.92774 64.95601,1.35761 84.82815,-0.91116 z M 212.32241,279.3978 c -1.06007,-2.76249 1.62687,-31.87955 3.68416,-39.92348 5.80016,-22.67841 16.25253,-29.10375 46.08923,-28.33224 14.03231,0.36284 14.68862,0.47724 21.23861,3.70179 13.32327,6.55902 17.71163,18.1817 17.99347,47.65613 l 0.17212,18 -44.27739,0.26042 c -40.07678,0.23572 -44.33647,0.10645 -44.9002,-1.36262 z M 322.45213,116.64037 c 2.89046,-2.32485 2.91657,-2.42871 1.25,-4.97223 C 322.31897,109.55718 322,106.62507 322,96.021614 c 0,-8.150767 0.4346,-13.744657 1.15782,-14.902717 0.6368,-1.019681 0.87593,-2.588575 0.53139,-3.486431 C 322.90343,75.584758 319.13255,75.490999 318.36163,77.5 317.85864,78.810755 310.05397,79 256.5,79 202.94603,79 195.14136,78.810755 194.63837,77.5 194.28687,76.583985 192.77186,76 190.74699,76 185.05138,76 184,79.187331 184,96.453952 c 0,15.288738 0.87474,19.237488 4.74998,21.442328 1.10857,0.63073 25.39156,1.0182 66.25002,1.05711 l 64.5,0.0614 2.95213,-2.37444 z m -133.27545,-1.3075 C 189.66323,112.8241 192,112.47962 192,114.91667 192,116.145 191.35431,117 190.42668,117 c -0.93124,0 -1.44138,-0.68037 -1.25,-1.66713 z m 3.04351,-3.72531 -3.27982,-3.38126 0.27982,-13.363152 C 189.48409,82.259938 189.61374,81.5 191.5,81.5 c 1.89345,0 2.01478,0.759152 2.27746,14.25 l 0.27745,14.25 h 62.5421 62.54209 l -0.31955,2.25 -0.31955,2.25 -61.5,0.24441 -61.5,0.24441 z"
       id="path224"
       inkscape:connector-curvature="0" />
    <path
       style="fill:#bed23d"
       d="M 0,256 V 0 H 256 512 V 256 512 H 256 0 Z m 313.5,186.58124 c 18.2897,-2.08811 45.48787,-6.51796 47.90088,-7.80177 1.82267,-0.96973 1.87183,-2.10724 1.1947,-27.6454 -0.38841,-14.64874 -1.01881,-26.94542 -1.40089,-27.32595 -0.38208,-0.38054 -3.84664,-0.29426 -7.69903,0.19173 -34.17519,4.3113 -93.53446,5.85128 -105.75459,2.74363 -16.66974,-4.23922 -26.03717,-13.357 -30.26965,-29.46298 -2.36955,-9.0169 -3.80933,-25.16841 -2.39544,-26.87205 C 216.06217,325.22016 227.93282,325 291.01546,325 c 65.43884,0 74.84218,-0.18664 75.34442,-1.49544 0.31561,-0.82249 1.12438,-11.39888 1.79725,-23.50309 0.9618,-17.30153 0.96368,-26.01649 0.009,-40.75456 -1.84709,-28.50932 -5.34755,-43.7869 -13.83578,-60.38557 -12.32842,-24.10813 -34.59336,-38.17586 -68.17398,-43.07458 -13.17435,-1.92187 -45.34807,-1.59689 -58.65619,0.59247 -51.10504,8.40746 -76.59712,38.27127 -83.92763,98.32068 -3.4504,28.26468 -3.02451,69.82952 0.99185,96.80009 6.51932,43.77835 25.27905,71.99391 56.121,84.40877 8.9405,3.59883 17.1638,5.82712 27.98663,7.58363 11.8779,1.92774 64.95601,1.35761 84.82815,-0.91116 z M 212.32241,279.3978 c -1.06007,-2.76249 1.62687,-31.87955 3.68416,-39.92348 5.80016,-22.67841 16.25253,-29.10375 46.08923,-28.33224 14.03231,0.36284 14.68862,0.47724 21.23861,3.70179 13.32327,6.55902 17.71163,18.1817 17.99347,47.65613 l 0.17212,18 -44.27739,0.26042 c -40.07678,0.23572 -44.33647,0.10645 -44.9002,-1.36262 z M 327.76887,98.07068 c 0.20745,-18.076626 -0.021,-23.613315 -1,-24.234687 C 326.07099,73.393041 293.5275,73.023735 254.45,73.015313 200.50492,73.003686 183.11111,73.288894 182.2,74.2 c -1.70669,1.70669 -1.70065,44.89935 0.007,46.60652 0.9245,0.9245 18.04607,1.14656 73.25,0.95 L 327.5,121.5 Z m -142.1022,21.26265 C 185.3,118.96667 185,117.63275 185,116.36907 v -2.2976 l 2.31451,2.21426 c 1.27298,1.21785 2.14642,2.55177 1.94098,2.96427 -0.46297,0.9296 -2.69082,0.98133 -3.58882,0.0833 z m 135.0091,0.009 c -0.39968,-0.39969 0.50072,-1.70541 2.0009,-2.90161 2.65944,-2.12056 2.68506,-2.23982 1.02546,-4.77269 C 322.31426,109.54998 322,106.60836 322,95.735183 322,88.400832 322.40632,81.9725 322.90294,81.45 c 0.49661,-0.5225 1.10139,-1.85 1.34395,-2.95 0.24257,-1.1 0.46464,2.05 0.49351,7 0.0289,4.95 0.36483,13.054868 0.74661,18.01082 0.38177,4.95595 0.28745,10.58026 -0.20961,12.49847 -0.86077,3.32182 -3.03678,4.898 -4.60163,3.33315 z m -128.45558,-7.73488 -3.27982,-3.38126 0.27982,-13.363152 C 189.48409,82.259938 189.61374,81.5 191.5,81.5 c 1.89345,0 2.01478,0.759152 2.27746,14.25 l 0.27745,14.25 h 62.5421 62.54209 l -0.31955,2.25 -0.31955,2.25 -61.5,0.24441 -61.5,0.24441 -3.27981,-3.38126 z M 185,77.559017 C 185,76.701558 185.45,76 186,76 c 0.55,0 1,0.423442 1,0.940983 0,0.517541 -0.45,1.219098 -1,1.559017 -0.55,0.339919 -1,-0.08352 -1,-0.940983 z M 194.63837,77.5 C 194.13051,76.176537 201.41108,76 256.5,76 c 55.08892,0 62.36949,0.176537 61.86163,1.5 -0.50299,1.310755 -8.30766,1.5 -61.86163,1.5 -53.55397,0 -61.35864,-0.189245 -61.86163,-1.5 z"
       id="path222"
       inkscape:connector-curvature="0" />
    <path
       style="fill:#595d5e"
       d="M 0,256 V 0 H 256 512 V 256 512 H 256 0 Z m 313.5,186.58124 c 18.2897,-2.08811 45.48787,-6.51796 47.90088,-7.80177 1.82267,-0.96973 1.87183,-2.10724 1.1947,-27.6454 -0.38841,-14.64874 -1.01881,-26.94542 -1.40089,-27.32595 -0.38208,-0.38054 -3.84664,-0.29426 -7.69903,0.19173 -34.17519,4.3113 -93.53446,5.85128 -105.75459,2.74363 -16.66974,-4.23922 -26.03717,-13.357 -30.26965,-29.46298 -2.36955,-9.0169 -3.80933,-25.16841 -2.39544,-26.87205 C 216.06217,325.22016 227.93282,325 291.01546,325 c 65.43884,0 74.84218,-0.18664 75.34442,-1.49544 0.31561,-0.82249 1.12438,-11.39888 1.79725,-23.50309 0.9618,-17.30153 0.96368,-26.01649 0.009,-40.75456 -1.84709,-28.50932 -5.34755,-43.7869 -13.83578,-60.38557 -12.32842,-24.10813 -34.59336,-38.17586 -68.17398,-43.07458 -13.17435,-1.92187 -45.34807,-1.59689 -58.65619,0.59247 -51.10504,8.40746 -76.59712,38.27127 -83.92763,98.32068 -3.4504,28.26468 -3.02451,69.82952 0.99185,96.80009 6.51932,43.77835 25.27905,71.99391 56.121,84.40877 8.9405,3.59883 17.1638,5.82712 27.98663,7.58363 11.8779,1.92774 64.95601,1.35761 84.82815,-0.91116 z M 212.32241,279.3978 c -1.06007,-2.76249 1.62687,-31.87955 3.68416,-39.92348 5.80016,-22.67841 16.25253,-29.10375 46.08923,-28.33224 14.03231,0.36284 14.68862,0.47724 21.23861,3.70179 13.32327,6.55902 17.71163,18.1817 17.99347,47.65613 l 0.17212,18 -44.27739,0.26042 c -40.07678,0.23572 -44.33647,0.10645 -44.9002,-1.36262 z M 327.76887,98.07068 c 0.20745,-18.076626 -0.021,-23.613315 -1,-24.234687 C 326.07099,73.393041 293.5275,73.023735 254.45,73.015313 200.50492,73.003686 183.11111,73.288894 182.2,74.2 c -1.70669,1.70669 -1.70065,44.89935 0.007,46.60652 0.9245,0.9245 18.04607,1.14656 73.25,0.95 L 327.5,121.5 Z"
       id="path220"
       inkscape:connector-curvature="0" />
    <path
       style="fill:#545c2f"
       d="M 0,256 V 0 H 256 512 V 256 512 H 256 0 Z m 283.5,189.9652 c 29.02327,-1.4615 73.25407,-7.15766 78.85495,-10.15516 1.83608,-0.98264 1.89666,-2.1825 1.43693,-28.46201 -0.27982,-15.9955 -0.89073,-27.84688 -1.46504,-28.42119 -0.64678,-0.64678 -4.04877,-0.64565 -9.90596,0.003 -31.7596,3.51877 -77.34015,5.50054 -92.80665,4.03508 -22.38947,-2.12142 -33.03014,-8.65383 -39.037,-23.96521 -2.355,-6.00285 -4.37973,-16.95202 -4.67331,-25.27192 l -0.23896,-6.77191 75.08443,-0.22809 c 41.29643,-0.12544 75.44496,-0.58872 75.88561,-1.0295 2.51586,-2.51663 4.21733,-54.20262 2.42103,-73.54467 -3.29981,-35.53149 -11.21832,-56.39211 -27.57879,-72.65391 -9.27014,-9.21423 -15.93466,-13.44754 -28.74662,-18.25991 -13.80251,-5.18443 -25.63489,-7.20748 -46.26661,-7.91049 -90.59077,-3.08679 -126.48668,37.55538 -126.4507,143.1704 0.0156,45.88743 4.74495,74.97014 15.94263,98.0383 17.15811,35.34716 47.93794,51.36033 100.54406,52.30793 3.85,0.0693 16,-0.32711 27,-0.88103 z M 213.56347,279.1027 c -0.88556,-1.43286 1.30081,-28.94032 2.89068,-36.36876 3.35525,-15.67684 10.11173,-24.67784 21.27294,-28.33984 8.09697,-2.65662 34.34539,-2.74217 41.80459,-0.13625 10.23333,3.57509 16.00159,11.2666 18.94347,25.25959 1.6753,7.9685 3.14729,33.86642 2.15062,37.83746 L 299.9619,280 h -42.92194 c -24.2609,0 -43.16303,-0.39012 -43.47649,-0.8973 z M 328.13478,97.5 328.17902,73.5 254.58951,73.243552 181,72.987104 V 97.5 122.0129 l 73.54527,-0.25645 73.54526,-0.25645 0.0442,-24 z"
       id="path218"
       inkscape:connector-curvature="0" />
    <path
       style="fill:#2f3537"
       d="M 0,256 V 0 H 256 512 V 256 512 H 256 0 Z m 283.5,189.9652 c 29.02327,-1.4615 73.25407,-7.15766 78.85495,-10.15516 1.83608,-0.98264 1.89666,-2.1825 1.43693,-28.46201 -0.27982,-15.9955 -0.89073,-27.84688 -1.46504,-28.42119 -0.64678,-0.64678 -4.04877,-0.64565 -9.90596,0.003 -31.7596,3.51877 -77.34015,5.50054 -92.80665,4.03508 -22.38947,-2.12142 -33.03014,-8.65383 -39.037,-23.96521 -2.355,-6.00285 -4.37973,-16.95202 -4.67331,-25.27192 l -0.23896,-6.77191 75.08443,-0.22809 c 41.29643,-0.12544 75.44496,-0.58872 75.88561,-1.0295 1.3364,-1.33681 2.19438,-12.02746 2.94526,-36.69858 C 371.91477,212.29562 354.04012,174.45241 308.5,159.68434 295.67994,155.52697 284.69872,153.87518 265.92485,153.28021 175.74723,150.4224 139.97741,191.10927 140.01331,296.5 c 0.0156,45.88743 4.74495,74.97014 15.94263,98.0383 17.15811,35.34716 47.93794,51.36033 100.54406,52.30793 3.85,0.0693 16,-0.32711 27,-0.88103 z M 213.56347,279.1027 c -0.88556,-1.43286 1.30081,-28.94032 2.89068,-36.36876 3.35525,-15.67684 10.11173,-24.67784 21.27294,-28.33984 8.09697,-2.65662 34.34539,-2.74217 41.80459,-0.13625 10.23333,3.57509 16.00159,11.2666 18.94347,25.25959 1.6753,7.9685 3.14729,33.86642 2.15062,37.83746 L 299.9619,280 h -42.92194 c -24.2609,0 -43.16303,-0.39012 -43.47649,-0.8973 z M 328.06574,122.96482 C 329.89705,121.98473 330,120.62941 330,97.5 c 0,-23.284011 -0.0924,-24.479085 -1.97044,-25.48418 -1.34294,-0.718717 -24.93462,-0.968766 -74.08087,-0.785183 -68.99097,0.25771 -72.1693,0.349871 -73.471,2.130404 -1.04729,1.432524 -1.37869,7.110283 -1.43927,24.658432 -0.0676,19.584237 0.14562,23.021717 1.51287,24.388957 1.42595,1.42595 9.08337,1.59157 73.58588,1.59157 47.71516,0 72.64662,-0.3491 73.92857,-1.03518 z"
       id="path216"
       inkscape:connector-curvature="0" />
  </g>
</svg>
