<?xml version="1.0" encoding="UTF-8" standalone="no"?>
<svg
   xmlns:dc="http://purl.org/dc/elements/1.1/"
   xmlns:cc="http://creativecommons.org/ns#"
   xmlns:rdf="http://www.w3.org/1999/02/22-rdf-syntax-ns#"
   xmlns:svg="http://www.w3.org/2000/svg"
   xmlns="http://www.w3.org/2000/svg"
   xmlns:sodipodi="http://sodipodi.sourceforge.net/DTD/sodipodi-0.dtd"
   xmlns:inkscape="http://www.inkscape.org/namespaces/inkscape"
   width="2500"
   height="2500"
   viewBox="0 0 266.893 266.895"
   version="1.1"
   id="svg84"
   sodipodi:docname="facebook.svg"
   inkscape:version="0.92.3 (2405546, 2018-03-11)">
  <metadata
     id="metadata90">
    <rdf:RDF>
      <cc:Work
         rdf:about="">
        <dc:format>image/svg+xml</dc:format>
        <dc:type
           rdf:resource="http://purl.org/dc/dcmitype/StillImage" />
        <dc:title></dc:title>
      </cc:Work>
    </rdf:RDF>
  </metadata>
  <defs
     id="defs88" />
  <sodipodi:namedview
     pagecolor="#ffffff"
     bordercolor="#666666"
     borderopacity="1"
     objecttolerance="10"
     gridtolerance="10"
     guidetolerance="10"
     inkscape:pageopacity="0"
     inkscape:pageshadow="2"
     inkscape:window-width="1920"
     inkscape:window-height="1027"
     id="namedview86"
     showgrid="false"
     inkscape:zoom="0.0944"
     inkscape:cx="1250"
     inkscape:cy="1250"
     inkscape:window-x="-8"
     inkscape:window-y="-8"
     inkscape:window-maximized="1"
     inkscape:current-layer="svg84" />
  <path
     d="M252.164 266.895c8.134 0 14.729-6.596 14.729-14.73V14.73c0-8.137-6.596-14.73-14.729-14.73H14.73C6.593 0 0 6.594 0 14.73v237.434c0 8.135 6.593 14.73 14.73 14.73h237.434z"
     fill="#485a96"
     id="path80" />
  <path
     d="M184.152 266.895V163.539h34.692l5.194-40.28h-39.887V97.542c0-11.662 3.238-19.609 19.962-19.609l21.329-.01V41.897c-3.689-.49-16.351-1.587-31.08-1.587-30.753 0-51.807 18.771-51.807 53.244v29.705h-34.781v40.28h34.781v103.355h41.597z"
     fill="#fff"
     id="path82" />
</svg>
