<?xml version="1.0" encoding="UTF-8" standalone="no"?>
<svg
   xmlns:dc="http://purl.org/dc/elements/1.1/"
   xmlns:cc="http://creativecommons.org/ns#"
   xmlns:rdf="http://www.w3.org/1999/02/22-rdf-syntax-ns#"
   xmlns:svg="http://www.w3.org/2000/svg"
   xmlns="http://www.w3.org/2000/svg"
   xmlns:sodipodi="http://sodipodi.sourceforge.net/DTD/sodipodi-0.dtd"
   xmlns:inkscape="http://www.inkscape.org/namespaces/inkscape"
   width="2500"
   height="2500"
   viewBox="0 0 256 256"
   preserveAspectRatio="xMidYMid"
   version="1.1"
   id="svg62"
   sodipodi:docname="google-analytics.svg"
   inkscape:version="0.92.3 (2405546, 2018-03-11)">
  <metadata
     id="metadata66">
    <rdf:RDF>
      <cc:Work
         rdf:about="">
        <dc:format>image/svg+xml</dc:format>
        <dc:type
           rdf:resource="http://purl.org/dc/dcmitype/StillImage" />
        <dc:title></dc:title>
      </cc:Work>
    </rdf:RDF>
  </metadata>
  <sodipodi:namedview
     pagecolor="#ffffff"
     bordercolor="#666666"
     borderopacity="1"
     objecttolerance="10"
     gridtolerance="10"
     guidetolerance="10"
     inkscape:pageopacity="0"
     inkscape:pageshadow="2"
     inkscape:window-width="1920"
     inkscape:window-height="1027"
     id="namedview64"
     showgrid="false"
     inkscape:zoom="0.3432"
     inkscape:cx="1250"
     inkscape:cy="1250"
     inkscape:window-x="1912"
     inkscape:window-y="-8"
     inkscape:window-maximized="1"
     inkscape:current-layer="svg62" />
  <defs
     id="defs52">
    <filter
       x="-50%"
       y="-50%"
       width="200%"
       height="200%"
       filterUnits="objectBoundingBox"
       id="a">
      <feOffset
         dy="16"
         in="SourceAlpha"
         result="shadowOffsetOuter1"
         id="feOffset39" />
      <feGaussianBlur
         stdDeviation="9"
         in="shadowOffsetOuter1"
         result="shadowBlurOuter1"
         id="feGaussianBlur41" />
      <feColorMatrix
         values="0 0 0 0 0 0 0 0 0 0 0 0 0 0 0 0 0 0 0.214965466 0"
         in="shadowBlurOuter1"
         result="shadowMatrixOuter1"
         id="feColorMatrix43" />
      <feMerge
         id="feMerge49">
        <feMergeNode
           in="shadowMatrixOuter1"
           id="feMergeNode45" />
        <feMergeNode
           in="SourceGraphic"
           id="feMergeNode47" />
      </feMerge>
    </filter>
  </defs>
  <path
     d="M127.979 155.387L256 27.93v-7.323C256 9.227 246.773 0 235.392 0H20.608C9.227 0 0 9.227 0 20.608v150.304l71.067-70.656 56.912 55.13"
     fill="#FF9C0B"
     id="path54" />
  <path
     d="M71.088 157.83L0 228.767v6.624C0 246.773 9.227 256 20.608 256h214.784c11.381 0 20.608-9.227 20.608-20.608V86.597L127.979 214.053 71.088 157.83"
     fill="#FB5722"
     id="path56" />
  <path
     d="M0 170.912l71.067-70.656 56.912 55.13L256 27.932l-.021 58.682-128 127.44-56.891-56.224L0 228.768v-57.856"
     id="path58"
     filter="url(#a)"
     fill="#F2F2F2" />
  <path
     d="M99.552 185.968l.005-58.117-28.469 29.978 28.464 28.139"
     fill="#FF9B07"
     id="path60" />
</svg>
