<?xml version="1.0" encoding="UTF-8" standalone="no"?>
<svg
   xmlns:dc="http://purl.org/dc/elements/1.1/"
   xmlns:cc="http://creativecommons.org/ns#"
   xmlns:rdf="http://www.w3.org/1999/02/22-rdf-syntax-ns#"
   xmlns:svg="http://www.w3.org/2000/svg"
   xmlns="http://www.w3.org/2000/svg"
   xmlns:sodipodi="http://sodipodi.sourceforge.net/DTD/sodipodi-0.dtd"
   xmlns:inkscape="http://www.inkscape.org/namespaces/inkscape"
   width="2500"
   height="1309"
   viewBox="0 0 256 134"
   preserveAspectRatio="xMinYMin meet"
   version="1.1"
   id="svg30"
   sodipodi:docname="php.svg"
   inkscape:version="0.92.3 (2405546, 2018-03-11)">
  <metadata
     id="metadata36">
    <rdf:RDF>
      <cc:Work
         rdf:about="">
        <dc:format>image/svg+xml</dc:format>
        <dc:type
           rdf:resource="http://purl.org/dc/dcmitype/StillImage" />
        <dc:title></dc:title>
      </cc:Work>
    </rdf:RDF>
  </metadata>
  <defs
     id="defs34" />
  <sodipodi:namedview
     pagecolor="#ffffff"
     bordercolor="#666666"
     borderopacity="1"
     objecttolerance="10"
     gridtolerance="10"
     guidetolerance="10"
     inkscape:pageopacity="0"
     inkscape:pageshadow="2"
     inkscape:window-width="1920"
     inkscape:window-height="1027"
     id="namedview32"
     showgrid="false"
     inkscape:zoom="0.65546218"
     inkscape:cx="1250"
     inkscape:cy="654.5"
     inkscape:window-x="-8"
     inkscape:window-y="-8"
     inkscape:window-maximized="1"
     inkscape:current-layer="svg30" />
  <g
     fill-rule="evenodd"
     id="g28">
    <ellipse
       fill="#8993BE"
       cx="128"
       cy="66.63"
       rx="128"
       ry="66.63"
       id="ellipse24" />
    <path
       d="M35.945 106.082l14.028-71.014H82.41c14.027.877 21.041 7.89 21.041 20.165 0 21.041-16.657 33.315-31.562 32.438H56.11l-3.507 18.411H35.945zm23.671-31.561L64 48.219h11.397c6.137 0 10.52 2.63 10.52 7.89-.876 14.905-7.89 17.535-15.78 18.412h-10.52zM100.192 87.671l14.027-71.013h16.658l-3.507 18.41h15.78c14.028.877 19.288 7.89 17.535 16.658l-6.137 35.945h-17.534l6.137-32.438c.876-4.384.876-7.014-5.26-7.014H124.74l-7.89 39.452h-16.658zM153.425 106.082l14.027-71.014h32.438c14.028.877 21.042 7.89 21.042 20.165 0 21.041-16.658 33.315-31.562 32.438h-15.781l-3.507 18.411h-16.657zm23.67-31.561l4.384-26.302h11.398c6.137 0 10.52 2.63 10.52 7.89-.876 14.905-7.89 17.535-15.78 18.412h-10.521z"
       fill="#232531"
       id="path26" />
  </g>
</svg>
