<?xml version="1.0" encoding="UTF-8" standalone="no"?>
<svg
   xmlns:dc="http://purl.org/dc/elements/1.1/"
   xmlns:cc="http://creativecommons.org/ns#"
   xmlns:rdf="http://www.w3.org/1999/02/22-rdf-syntax-ns#"
   xmlns:svg="http://www.w3.org/2000/svg"
   xmlns="http://www.w3.org/2000/svg"
   xmlns:sodipodi="http://sodipodi.sourceforge.net/DTD/sodipodi-0.dtd"
   xmlns:inkscape="http://www.inkscape.org/namespaces/inkscape"
   id="Layer_1"
   viewBox="0 0 360 360"
   width="2500"
   height="2500"
   version="1.1"
   sodipodi:docname="pinterest.svg"
   inkscape:version="0.92.3 (2405546, 2018-03-11)">
  <metadata
     id="metadata3924">
    <rdf:RDF>
      <cc:Work
         rdf:about="">
        <dc:format>image/svg+xml</dc:format>
        <dc:type
           rdf:resource="http://purl.org/dc/dcmitype/StillImage" />
        <dc:title></dc:title>
      </cc:Work>
    </rdf:RDF>
  </metadata>
  <defs
     id="defs3922" />
  <sodipodi:namedview
     pagecolor="#ffffff"
     bordercolor="#666666"
     borderopacity="1"
     objecttolerance="10"
     gridtolerance="10"
     guidetolerance="10"
     inkscape:pageopacity="0"
     inkscape:pageshadow="2"
     inkscape:window-width="640"
     inkscape:window-height="480"
     id="namedview3920"
     showgrid="false"
     inkscape:zoom="0.0944"
     inkscape:cx="1250"
     inkscape:cy="1250"
     inkscape:window-x="0"
     inkscape:window-y="0"
     inkscape:window-maximized="0"
     inkscape:current-layer="Layer_1" />
  <style
     id="style3913">.st0{fill:#ca2127}.st1{fill:#fff}</style>
  <path
     class="st0"
     d="M354.7 179.5c0 96.8-78.5 175.3-175.3 175.3-96.8 0-175.3-78.5-175.3-175.3C4.1 82.7 82.6 4.2 179.4 4.2c96.8 0 175.3 78.5 175.3 175.3z"
     id="path3915" />
  <path
     class="st1"
     d="M164.7 62.9c-49.4 5.3-98.6 43.3-100.6 97.7-1.3 33.2 12.6 58.1 45.8 65.1 3.8-15.7 4.5-24.2 4.5-24.2s-14.6-14-16.1-22.9C86.1 107 185 58.1 236.9 108.1c35.8 34.7 12.2 141.4-45.6 130.3-55.4-10.6 27.1-95.5-17.1-112.2-35.9-13.6-55 41.5-38 68.8-10 47-31.5 91.3-22.8 150.2 28.3-19.5 37.8-56.9 45.6-95.9 14.2 8.2 21.8 16.8 39.9 18.1 66.8 4.9 104.1-63.5 95-126.7-8.2-56-66.8-84.5-129.2-77.8z"
     id="path3917" />
</svg>
