<?xml version="1.0" ?><!DOCTYPE svg  PUBLIC '-//W3C//DTD SVG 1.1//EN'  'http://www.w3.org/Graphics/SVG/1.1/DTD/svg11.dtd'><svg enable-background="new 0 0 150 150" height="150px" id="Layer_1" version="1.1" viewBox="0 0 150 150" width="150px" xml:space="preserve" xmlns="http://www.w3.org/2000/svg" xmlns:xlink="http://www.w3.org/1999/xlink"><g><circle cx="75" cy="75" fill="#33B44A" opacity="0.1" r="75"/><path d="M75,0v150c41.42,0,75-33.579,75-75.001C150,33.579,116.42,0,75,0z" fill="#33B44A" opacity="0.1"/><circle cx="75" cy="75" fill="#33B44A" r="65.488"/><path d="M75,9.512v130.975c36.168,0,65.486-29.319,65.486-65.488C140.486,38.832,111.168,9.512,75,9.512z" fill="#2EA745"/><g><path d="M9.584,72.073c-0.041,0.971-0.072,1.945-0.072,2.926c0,36.169,29.32,65.488,65.488,65.488v-5.852    C39.812,134.636,11.117,106.882,9.584,72.073z" fill="#2EA745"/><path d="M140.414,72.073c-1.533,34.809-30.229,62.562-65.414,62.562v5.852c36.168,0,65.486-29.319,65.486-65.488    C140.486,74.019,140.457,73.044,140.414,72.073z" fill="#2A9C40"/></g></g><path d="M60.62,75.578c0,0.253-0.053,0.497-0.07,0.752l26.686,13.331c2.279-1.932,5.205-3.139,8.432-3.139  c7.256,0,13.141,5.883,13.141,13.141c0,7.262-5.885,13.147-13.141,13.147c-7.26,0-13.143-5.886-13.143-13.147  c0-0.263,0.061-0.498,0.074-0.753L55.917,85.581c-2.289,1.919-5.205,3.127-8.438,3.127c-7.254,0-13.137-5.875-13.137-13.13  c0-7.267,5.883-13.148,13.137-13.148c3.232,0,6.148,1.217,8.438,3.142l26.682-13.336c-0.014-0.258-0.074-0.498-0.074-0.762  c0-7.248,5.883-13.132,13.143-13.132c7.256,0,13.141,5.884,13.141,13.132c0,7.265-5.885,13.149-13.141,13.149  c-3.234,0-6.152-1.211-8.432-3.146L60.55,74.822C60.567,75.073,60.62,75.312,60.62,75.578L60.62,75.578z" fill="#FFFFFF"/></svg>