<?xml version="1.0" encoding="UTF-8" standalone="no"?>
<!-- Created with Inkscape (http://www.inkscape.org/) -->

<svg
   xmlns:dc="http://purl.org/dc/elements/1.1/"
   xmlns:cc="http://creativecommons.org/ns#"
   xmlns:rdf="http://www.w3.org/1999/02/22-rdf-syntax-ns#"
   xmlns:svg="http://www.w3.org/2000/svg"
   xmlns="http://www.w3.org/2000/svg"
   xmlns:sodipodi="http://sodipodi.sourceforge.net/DTD/sodipodi-0.dtd"
   xmlns:inkscape="http://www.inkscape.org/namespaces/inkscape"
   version="1.1"
   id="svg148"
   width="1200"
   height="1200"
   viewBox="0 0 1200 1200"
   sodipodi:docname="tawk-to.svg"
   inkscape:version="0.92.3 (2405546, 2018-03-11)">
  <metadata
     id="metadata154">
    <rdf:RDF>
      <cc:Work
         rdf:about="">
        <dc:format>image/svg+xml</dc:format>
        <dc:type
           rdf:resource="http://purl.org/dc/dcmitype/StillImage" />
        <dc:title></dc:title>
      </cc:Work>
    </rdf:RDF>
  </metadata>
  <defs
     id="defs152" />
  <sodipodi:namedview
     pagecolor="#ffffff"
     bordercolor="#666666"
     borderopacity="1"
     objecttolerance="10"
     gridtolerance="10"
     guidetolerance="10"
     inkscape:pageopacity="0"
     inkscape:pageshadow="2"
     inkscape:window-width="1920"
     inkscape:window-height="1027"
     id="namedview150"
     showgrid="false"
     inkscape:zoom="0.19666667"
     inkscape:cx="600"
     inkscape:cy="600"
     inkscape:window-x="1912"
     inkscape:window-y="-8"
     inkscape:window-maximized="1"
     inkscape:current-layer="svg148" />
  <g
     id="g158"
     transform="translate(5.0847505,5.0847492)">
    <path
       style="fill:#fdfdfd"
       d="M 0,600 V 0 h 600 600 v 600 600 H 600 0 Z"
       id="path174"
       inkscape:connector-curvature="0" />
    <path
       style="fill:#ccc9c9"
       d="M 132,1182.3762 C 103.37011,1178.5097 80.095214,1168.6509 64.279244,1153.6909 49.590859,1139.7976 42.483501,1125.2011 42.518211,1109 c 0.01601,-7.4752 0.407592,-9.3268 3.247822,-15.3576 4.351825,-9.2405 12.59661,-17.1346 23.493304,-22.4941 22.699558,-11.1646 46.982153,-13.3758 136.654303,-12.4438 55.80498,0.58 83.71523,-0.2187 114.58636,-3.2794 18.05189,-1.7897 26.55705,-3.0821 27.68144,-4.2065 1.38107,-1.3811 10.5228,-41.4192 17.92956,-78.52628 8.25634,-41.36336 15.71076,-85.22569 27.39468,-161.19232 8.40384,-54.64011 14.90426,-94.37191 17.91503,-109.5 11.25156,-56.53528 22.50301,-97.63745 34.45511,-125.86643 4.41887,-10.43665 5.19256,-13.43406 7.51999,-29.13357 7.99286,-53.9153 12.25133,-99.64345 14.57416,-156.5 0.56175,-13.75 1.242,-27.025 1.51167,-29.5 0.26966,-2.475 1.19063,-11.25 2.0466,-19.5 2.38323,-22.97026 7.59412,-52.07083 11.95134,-66.74321 2.38408,-8.02804 1.95592,-8.33071 -4.22958,-2.98992 -18.77473,16.21081 -34.92848,20.10091 -47.58702,11.45979 -12.01913,-8.20464 -17.01564,-28.4483 -11.75466,-47.62474 3.98675,-14.53182 11.92244,-27.71692 26.42634,-43.9072 4.33847,-4.8429 7.72549,-8.92425 7.52673,-9.06966 -0.19876,-0.14542 -2.20128,-0.79185 -4.45003,-1.43652 -5.86424,-1.68116 -11.85195,-6.37784 -15.01758,-11.77958 -3.69679,-6.3081 -4.44273,-17.35432 -1.82497,-27.02511 5.49694,-20.30731 27.81046,-39.55723 58.82432,-50.747837 1.04122,-0.3757 1.70959,-0.866627 1.48527,-1.090949 -0.22433,-0.224323 -4.69077,-1.282799 -9.92543,-2.352171 -21.774,-4.448138 -32.87909,-14.668865 -32.93101,-30.308536 -0.0187,-5.646666 0.51781,-7.697212 3.6633,-14 4.97782,-9.974343 12.10925,-16.713389 23.74881,-22.442108 15.53656,-7.646738 21.7101,-8.838418 46.06593,-8.892116 18.00747,-0.0397 22.59993,0.277746 32.22748,2.227676 35.30313,7.150172 71.67302,22.711192 102.72407,43.950949 8.97609,6.139885 7.35021,6.042043 24.56751,1.478424 16.20508,-4.295319 29.88043,-6.219557 49.037,-6.899928 26.80829,-0.952131 48.97834,2.131133 73.76069,10.25815 29.29319,9.606281 51.59782,23.725792 79.20126,50.136816 l 7.52739,7.20222 14.4773,1.04107 c 16.16069,1.16212 27.6495,2.98211 41.28978,6.54089 46.70087,12.18436 92.98132,38.83903 127.81302,73.61243 47.151,47.07205 71.8745,106.09451 71.8745,171.58603 0,8.63672 -0.4147,15.45338 -0.9606,15.79076 -0.5283,0.32652 -3.6289,-1.22778 -6.8903,-3.45398 -24.7623,-16.90257 -54.4559,-20.11403 -125.1491,-13.53528 -21.57523,2.0078 -46.19384,3.29381 -67.13871,3.50713 -0.35129,0.004 -0.94676,1.64854 -1.32326,3.65547 -0.83591,4.45579 0.29301,5.7347 9.46197,10.71911 9.14265,4.97011 23.02261,9.27051 36.22191,11.22254 20.82799,3.08025 47.62169,0.25676 72.16259,-7.6044 5.1273,-1.64242 9.8383,-2.98621 10.4689,-2.98621 3.2207,0 -0.741,15.4244 -7.3203,28.5 -14.8892,29.59114 -48.9362,51.23394 -92.0331,58.50306 -11.16195,1.88268 -15.9277,2.14351 -33.70682,1.84482 L 921.08636,479.5 l -4.52655,4.44188 c -6.35202,6.23322 -7.93956,11.51722 -7.34364,24.44278 0.33464,7.25841 1.04253,11.3863 2.50638,14.61534 3.47009,7.65453 13.80884,62.10603 18.22759,96 15.22226,116.76213 4.77016,209.67034 -31.83728,283 -30.99927,62.09573 -80.59481,108.5455 -149.61286,140.1232 -6.05,2.768 -11.38615,5.4064 -11.85812,5.8629 -0.47302,0.4576 0.57411,4.544 2.33338,9.106 11.29998,29.3018 6.11904,57.602 -12.28155,67.0863 -5.6956,2.9357 -14.48957,2.9287 -21.09825,-0.017 -2.69749,-1.2023 -4.98185,-2.068 -5.07634,-1.9238 -0.0945,0.1441 -1.22157,2.0621 -2.50462,4.2621 -7.20745,12.3584 -17.35452,17.1674 -29.5145,13.9879 -8.61222,-2.2519 -14.8384,-6.8236 -26.07001,-19.1425 -5.43852,-5.965 -16.07036,-17.0329 -23.62631,-24.5954 -15.69246,-15.7061 -12.96396,-14.6727 -32.2611,-12.2184 -6.62342,0.8424 -21.40823,2.331 -32.85514,3.308 l -20.81257,1.7762 -7.07517,7.7544 c -8.26574,9.0592 -10.12232,9.0026 -7.00991,-0.2137 1.11541,-3.303 1.76901,-6.2644 1.45245,-6.5809 -0.31657,-0.3166 -3.14633,-0.5756 -6.28836,-0.5756 -5.67383,0 -5.76988,0.05 -14.08333,7.3548 -4.6038,4.0452 -11.74555,10.9069 -15.87055,15.2481 -6.96194,7.327 -7.52144,7.7092 -7.79884,5.3274 -0.16436,-1.4112 1.52314,-7.6735 3.75,-13.9161 2.22686,-6.2426 4.04884,-11.7866 4.04884,-12.3201 0,-0.5949 -2.80347,-0.7283 -7.25,-0.3449 -3.9875,0.3438 -15.57161,1.1375 -25.74247,1.7639 l -18.49247,1.1389 -14.4736,10.5658 c -28.51558,20.8165 -51.67151,35.4238 -76.54146,48.2842 -17.95778,9.2861 -23.29038,11.5076 -24.5645,10.2335 -0.57855,-0.5785 0.58783,-5.4635 3.0653,-12.8379 2.19956,-6.5471 3.9992,-12.2663 3.9992,-12.7091 0,-0.4429 -4.93469,1.6696 -10.96597,4.6944 -42.74737,21.4386 -91.84013,36.5094 -131.88998,40.4883 -14.05249,1.396 -36.40524,1.1254 -49.14405,-0.595 z M 774.5,361.00801 c 25.86528,-2.7513 47.22385,-13.39344 65.30892,-32.54089 17.49239,-18.51995 26.63014,-39.99174 27.8962,-65.55019 1.23847,-25.00144 -5.55882,-47.43859 -20.4338,-67.44985 -17.77194,-23.90854 -45.67087,-39.2553 -74.77132,-41.13053 -15.71945,-1.01296 -42.69547,5.56755 -58.0702,14.16558 -40.37355,22.57818 -60.45112,69.67834 -48.97939,114.90123 4.03854,15.92037 9.72055,26.23367 25.80449,46.83717 13.86959,17.7669 42.57743,30.50364 71.2451,31.60913 1.65,0.0636 7.05,-0.31512 12,-0.84165 z m 1.60463,-47.59053 c -8.31745,-2.23669 -14.99165,-6.279 -22.13133,-13.4041 C 737.0621,283.1367 733.32083,260.06649 743.97816,238.37926 752.57114,220.8929 769.85201,210 789,210 c 23.17415,0 43.3849,16.18385 49.49212,39.63106 7.0619,27.11246 -10.1835,56.84417 -37.02708,63.83603 -7.2726,1.89427 -18.21138,1.87287 -25.36041,-0.0496 z m 38.21111,-54.53452 c 3.67943,-1.88168 5.63979,-5.14314 5.63979,-9.38296 0,-6.22497 -4.47445,-10.5 -10.98979,-10.5 -4.52129,0 -9.97866,5.57811 -9.9303,10.15 0.0872,8.24403 8.14974,13.37956 15.2803,9.73296 z"
       id="path172"
       inkscape:connector-curvature="0" />
    <path
       style="fill:#ec6da7"
       d="m 131.60913,1181.5102 c -36.529505,-5.2074 -63.549309,-19.6858 -78.525861,-42.0776 -6.88931,-10.3004 -9.573099,-18.687 -9.578748,-29.9326 -0.004,-8.002 0.34027,-9.7276 3.104846,-15.5617 6.805456,-14.3617 21.647881,-24.2349 44.36145,-29.5093 19.038653,-4.4211 29.173223,-4.8843 101.029183,-4.6181 81.15849,0.3007 115.97637,-1.0789 149.24522,-5.914 l 7.74521,-1.1256 1.51834,-5.1128 c 2.28708,-7.7014 13.83752,-60.33352 18.46292,-84.1303 7.74123,-39.82716 13.3521,-73.4635 26.52746,-159.0282 9.75838,-63.37386 15.82159,-98.9381 19.52066,-114.5 1.63419,-6.875 5.21984,-22.4 7.96812,-34.5 6.34396,-27.93101 14.15842,-53.87011 21.99208,-73 l 6.14247,-15 3.87833,-26.5 c 6.67444,-45.60536 10.93388,-88.78634 13.02071,-132 1.63794,-33.91818 2.83142,-51.84732 3.89412,-58.5 0.52715,-3.3 1.69709,-12.3 2.59988,-20 1.85101,-15.7876 7.1632,-43.51787 10.91065,-56.95487 1.37358,-4.92518 2.30186,-9.15043 2.06284,-9.38945 -0.44166,-0.44167 -2.29315,0.97315 -12.98901,9.92558 -17.42937,14.58837 -35.88379,16.35715 -46.34542,4.44202 -4.87603,-5.5535 -7.10339,-10.82491 -8.28557,-19.6092 -2.83988,-21.10197 6.94543,-44.34291 27.7618,-65.93659 8.4655,-8.78161 9.95579,-11.94637 5.65057,-11.99945 -2.85306,-0.0352 -10.53437,-3.86202 -13.62296,-6.78699 -7.59555,-7.19317 -9.76019,-20.41386 -5.31594,-32.46753 4.96978,-13.47903 13.05624,-23.60156 26.00554,-32.5534 8.27845,-5.72289 23.32524,-13.334481 31.37787,-15.872848 2.92312,-0.921431 5.15688,-2.152767 4.96391,-2.736301 -0.19297,-0.583534 -2.33961,-1.432363 -4.77033,-1.886286 C 477.86452,86.049991 472.46487,84.572962 467.07093,81.87758 437.80986,67.255652 450.4392,30.576839 489,18.189955 c 28.17594,-9.0509551 64.06579,-5.822845 106.5,9.579135 15.17426,5.507671 43.44764,19.998022 58,29.725504 l 13,8.68981 6,-1.617349 c 13.46244,-3.628913 27.64929,-6.561997 38.80122,-8.022023 13.49643,-1.766972 40.24108,-2.030421 52.72501,-0.519369 35.0667,4.244465 67.42863,16.628256 92.97377,35.577844 l 6.5,4.821751 -4,0.729741 c -2.2,0.401358 -7.825,0.756051 -12.5,0.788207 -16.72127,0.115014 -43.08717,3.234284 -64.5,7.630794 -53.59824,11.00486 -97.73647,33.99002 -126.32189,65.78262 -56.78631,63.15751 -52.37183,157.54524 12.4796,266.83126 3.48826,5.87833 6.34229,10.96927 6.34229,11.31321 0,0.34393 -3.61452,4.98439 -8.03228,10.31212 -10.4611,12.61591 -20.92212,27.25563 -20.94759,29.31518 -0.0111,0.89562 2.39572,3.49221 5.34843,5.77021 7.44732,5.74556 22.97079,22.01908 30.14342,31.59984 12.06431,16.11479 23.93835,38.49705 29.04633,54.75156 0.99381,3.1625 2.13435,5.75 2.53451,5.75 3.48996,0 32.67344,-28.58985 44.91362,-44 13.69429,-17.24086 27.80094,-39.90779 35.94042,-57.75 1.31726,-2.8875 2.98452,-5.25 3.70503,-5.25 1.45721,0 1.60485,0.52373 3.9465,14 3.18853,18.35011 12.87207,48.24088 20.42387,63.04363 l 2.24445,4.39948 2.94182,-3.47155 c 5.13646,-6.06138 15.43136,-22.10822 21.153,-32.97156 7.09441,-13.46974 10.86572,-22.27849 16.69715,-39 2.68051,-7.6863 5.24984,-13.5 5.96625,-13.5 0.70645,0 2.20921,3.28918 3.4266,7.5 5.12443,17.72491 15.3021,31.34391 29.65682,39.68458 l 7.75655,4.50686 1.99156,8.65428 c 8.8687,38.53886 16.63812,90.06016 20.30589,134.65428 1.6063,19.53002 1.62338,77.24022 0.0278,94 -4.82087,50.63845 -14.14308,89.53534 -30.28869,126.37944 -30.67375,69.99716 -83.7135,121.43826 -160.76152,155.91616 -6.16919,2.7606 -9.17135,4.6173 -8.80652,5.4464 7.3577,16.7214 9.09955,23.8427 9.11328,37.258 0.0174,17.0285 -4.50945,28.1354 -14.23982,34.9381 -5.8388,4.082 -15.61885,4.8003 -22.70161,1.6673 -2.61774,-1.158 -5.30898,-2.1054 -5.98053,-2.1054 -0.67156,0 -2.03383,1.8025 -3.02727,4.0056 -4.00394,8.8791 -12.86584,14.9981 -21.70765,14.9888 -12.82345,-0.014 -19.96852,-4.7961 -38.72426,-25.9205 -13.78015,-15.5205 -23.3827,-25.163 -30.3531,-30.4796 -3.15204,-2.4042 -3.89257,-2.5653 -7.8465,-1.7067 -5.81265,1.2623 -29.47131,3.8517 -49.86598,5.4578 l -16.5,1.2993 -6.4125,6.6818 c -3.52688,3.675 -6.60601,6.4883 -6.84252,6.2518 -0.23651,-0.2365 0.31325,-2.9867 1.22169,-6.1116 0.90843,-3.1249 1.50214,-5.8312 1.31935,-6.014 -0.18279,-0.1828 -3.34108,-0.4298 -7.01844,-0.5488 -6.62413,-0.2145 -6.73639,-0.1735 -12.11193,4.419 -2.98421,2.5495 -9.74771,8.9996 -15.03,14.3337 -5.2823,5.334 -9.82006,9.4823 -10.08392,9.2185 -0.26386,-0.2639 1.33047,-5.6312 3.54295,-11.9274 2.21249,-6.2963 4.28944,-12.2865 4.61545,-13.3117 0.53884,-1.6944 0.14746,-1.8115 -4.30369,-1.2871 -2.69304,0.3173 -14.91666,1.1172 -27.1636,1.7777 l -22.26715,1.2008 -12.73285,9.5007 c -17.2091,12.8406 -45.89166,31.7407 -61.73284,40.6782 -18.87917,10.6515 -38.39045,20.01 -39.43998,18.9171 -0.52115,-0.5427 0.82257,-5.9473 3.2589,-13.1078 2.28012,-6.7014 3.86396,-12.4661 3.51964,-12.8104 -0.34432,-0.3443 -6.41135,2.2598 -13.4823,5.7868 -36.04895,17.9816 -78.49293,32.0634 -113.85626,37.7746 -17.02349,2.7493 -51.44208,3.5034 -65.89087,1.4436 z M 929.18839,478.20247 c -1.05075,-0.71833 -0.41474,-4.55667 3.19793,-19.29956 5.11832,-20.88728 8.8156,-39.56709 11.5197,-58.2012 1.02147,-7.03906 2.0895,-13.03056 2.37339,-13.31445 0.28389,-0.28389 5.62466,1.97015 11.86837,5.00898 17.03882,8.29281 31.85283,11.5476 52.72392,11.58395 17.3243,0.0302 39.9619,-3.87371 57.4243,-9.90293 7.0841,-2.44594 7.4888,-1.89458 5.1719,7.04654 -4.0376,15.58159 -12.7451,30.10316 -25.1499,41.94253 -17.0538,16.27653 -39.8026,27.32797 -67.94815,33.00942 -8.25014,1.66537 -15.56949,2.2941 -30.36985,2.60878 -10.725,0.22802 -20.09022,0.0111 -20.81161,-0.48206 z m 209.05911,-94.67725 c -8.0139,-5.44032 -19.1083,-9.80394 -32.2941,-12.70182 -9.5039,-2.08871 -12.9058,-2.29399 -37.4534,-2.2601 -20.0816,0.0277 -32.6372,0.59463 -49,2.21243 -29.9583,2.962 -58.72431,4.49477 -66,3.51674 l -6,-0.80655 0.5,-7.99296 c 1.20054,-19.19169 0.38065,-73.00072 -1.34075,-87.99296 -4.88918,-42.58153 -12.73221,-77.48444 -23.32377,-103.79503 -2.48087,-6.16273 -5.34348,-13.37265 -6.36137,-16.02204 -2.29276,-5.96767 -9.74098,-18.15233 -16.14477,-26.41146 -2.65614,-3.4257 -4.82934,-6.6882 -4.82934,-7.25 0,-1.30766 6.10929,-1.29553 19.14405,0.038 30.65441,3.13616 66.62209,14.98232 97.22055,32.02014 74.2242,41.3294 122.0063,108.62467 132.0384,185.95988 0.8177,6.30327 1.8027,19.22299 2.1888,28.71049 0.5887,14.4625 0.4764,17.2314 -0.6948,17.13488 -0.7684,-0.0633 -4.2106,-2.02516 -7.6495,-4.35966 z M 779,312.90853 c -6.76603,-1.31163 -17.91046,-7.20636 -23.19122,-12.26677 -29.58646,-28.3519 -17.35818,-77.92867 21.73277,-88.11057 32.19783,-8.38647 64.02527,19.61162 61.13325,53.77794 -1.57887,18.65277 -11.92522,34.28952 -27.85978,42.10532 -10.74716,5.27141 -20.6148,6.66528 -31.81502,4.49408 z m 37.10212,-54.19316 c 9.29784,-6.25157 4.82768,-20.77007 -6.3679,-20.6821 -9.22024,0.0724 -14.5599,9.81989 -9.72416,17.75129 3.39342,5.56578 10.30181,6.82399 16.09206,2.93081 z"
       id="path170"
       inkscape:connector-curvature="0" />
    <path
       style="fill:#9dd092"
       d="m 131.60913,1181.5102 c -36.529505,-5.2074 -63.549309,-19.6858 -78.525861,-42.0776 -6.88931,-10.3004 -9.573099,-18.687 -9.578748,-29.9326 -0.004,-8.002 0.34027,-9.7276 3.104846,-15.5617 6.805456,-14.3617 21.647881,-24.2349 44.36145,-29.5093 19.038653,-4.4211 29.173223,-4.8843 101.029183,-4.6181 81.15849,0.3007 115.97637,-1.0789 149.24522,-5.914 l 7.74521,-1.1256 1.51834,-5.1128 c 2.28708,-7.7014 13.83752,-60.33352 18.46292,-84.1303 7.74123,-39.82716 13.3521,-73.4635 26.52746,-159.0282 9.75838,-63.37386 15.82159,-98.9381 19.52066,-114.5 1.63419,-6.875 5.21984,-22.4 7.96812,-34.5 6.34396,-27.93101 14.15842,-53.87011 21.99208,-73 l 6.14247,-15 3.87833,-26.5 c 6.67444,-45.60536 10.93388,-88.78634 13.02071,-132 1.6191,-33.52798 2.83645,-51.74025 3.94369,-59 0.54526,-3.575 1.68959,-12.35 2.54296,-19.5 1.97359,-16.53563 5.72969,-36.66226 9.70443,-52 1.71038,-6.6 3.21039,-13.125 3.33336,-14.5 0.38156,-4.26639 8.21659,-25.4955 15.07478,-40.84529 8.58817,-19.22175 16.45589,-33.51604 27.88089,-50.65471 12.81025,-19.21669 20.59517,-28.72646 36.43772,-44.51095 26.01236,-25.91703 55.25579,-45.233068 86.60859,-57.207206 12.04401,-4.599797 16.26925,-5.822836 35.45206,-10.261959 22.41215,-5.186429 53.78241,-7.065571 75.02623,-4.494222 35.0667,4.244465 67.42863,16.628256 92.97377,35.577844 l 6.5,4.821751 -4,0.729741 c -2.2,0.401358 -7.825,0.756051 -12.5,0.788207 -16.72127,0.115014 -43.08717,3.234284 -64.5,7.630794 -53.59824,11.00486 -97.73647,33.99002 -126.32189,65.78262 -56.78631,63.15751 -52.37183,157.54524 12.4796,266.83126 3.48826,5.87833 6.34229,10.96927 6.34229,11.31321 0,0.34393 -3.61452,4.98439 -8.03228,10.31212 -10.4611,12.61591 -20.92212,27.25563 -20.94759,29.31518 -0.0111,0.89562 2.39572,3.49221 5.34843,5.77021 7.44732,5.74556 22.97079,22.01908 30.14342,31.59984 12.06431,16.11479 23.93835,38.49705 29.04633,54.75156 0.99381,3.1625 2.13435,5.75 2.53451,5.75 3.48996,0 32.67344,-28.58985 44.91362,-44 13.69429,-17.24086 27.80094,-39.90779 35.94042,-57.75 1.31726,-2.8875 2.98452,-5.25 3.70503,-5.25 1.45721,0 1.60485,0.52373 3.9465,14 3.18853,18.35011 12.87207,48.24088 20.42387,63.04363 l 2.24445,4.39948 2.94182,-3.47155 c 5.13646,-6.06138 15.43136,-22.10822 21.153,-32.97156 7.09441,-13.46974 10.86572,-22.27849 16.69715,-39 2.68051,-7.6863 5.24984,-13.5 5.96625,-13.5 0.70645,0 2.20921,3.28918 3.4266,7.5 5.12443,17.72491 15.3021,31.34391 29.65682,39.68458 l 7.75655,4.50686 1.99156,8.65428 c 8.8687,38.53886 16.63812,90.06016 20.30589,134.65428 1.6063,19.53002 1.62338,77.24022 0.0278,94 -6.80271,71.45569 -23.36317,123.30728 -54.6143,171 C 848.48099,979.95428 805.00676,1015.44 743,1043.9797 725.83223,1051.8814 697.98974,1062 693.41489,1062 c -1.76365,0 -3.36258,-1.6142 -6.68594,-6.75 -9.46086,-14.6203 -22.5964,-26.0077 -38.86225,-33.6903 -14.13844,-6.6777 -22.80898,-8.6981 -39.8667,-9.2895 -16.03003,-0.5557 -24.01034,0.3519 -37.57657,4.2738 -17.11378,4.9474 -39.04572,17.3983 -53.65853,30.4622 -7.6677,6.855 -19.22778,22.3908 -25.03505,33.6452 l -4.72212,9.1513 -5.75387,0.5759 c -3.16462,0.3168 -15.55258,1.1125 -27.5288,1.7682 l -21.77495,1.1922 -12.72505,9.4949 c -17.20198,12.8353 -45.88643,31.7363 -61.72506,40.6724 -18.87917,10.6515 -38.39045,20.01 -39.43998,18.9171 -0.52115,-0.5427 0.82257,-5.9473 3.2589,-13.1078 2.28012,-6.7014 3.86396,-12.4661 3.51964,-12.8104 -0.34432,-0.3443 -6.41135,2.2598 -13.4823,5.7868 -36.04895,17.9816 -78.49293,32.0634 -113.85626,37.7746 -17.02349,2.7493 -51.44208,3.5034 -65.89087,1.4436 z M 516.25,1089.2325 c -3.4375,-0.1804 -6.25,-0.7521 -6.25,-1.2705 0,-1.5268 8.85277,-7.5997 18,-12.3478 21.07374,-10.939 39.73768,-12.3606 58.6905,-4.4705 7.86474,3.2741 15.69444,8.4244 14.85988,9.7748 -0.88401,1.4303 -24.01838,4.1945 -55.05038,6.5776 -11,0.8447 -20.9,1.6548 -22,1.8001 -1.1,0.1454 -4.8125,0.1167 -8.25,-0.064 z M 779,312.90853 c -6.76603,-1.31163 -17.91046,-7.20636 -23.19122,-12.26677 -29.58646,-28.3519 -17.35818,-77.92867 21.73277,-88.11057 32.19783,-8.38647 64.02527,19.61162 61.13325,53.77794 -1.57887,18.65277 -11.92522,34.28952 -27.85978,42.10532 -10.74716,5.27141 -20.6148,6.66528 -31.81502,4.49408 z m 37.10212,-54.19316 c 9.29784,-6.25157 4.82768,-20.77007 -6.3679,-20.6821 -9.22024,0.0724 -14.5599,9.81989 -9.72416,17.75129 3.39342,5.56578 10.30181,6.82399 16.09206,2.93081 z"
       id="path168"
       inkscape:connector-curvature="0" />
    <path
       style="fill:#969796"
       d="m 139,1181.3258 c -36.13798,-3.6566 -66.122405,-17.3415 -81.34658,-37.1264 -16.930006,-22.0018 -17.797541,-44.9409 -2.292385,-60.6145 10.807946,-10.9254 24.268272,-16.586 47.638965,-20.034 17.34649,-2.5593 28.89768,-2.8805 108.5,-3.0175 54.83137,-0.094 83.28305,-0.5245 93,-1.4062 22.38586,-2.0313 43.53789,-4.9138 45.00752,-6.1334 2.35838,-1.9573 14.29444,-54.7589 23.39528,-103.4938 6.62551,-35.47953 12.2702,-69.58087 22.09784,-133.5 9.57812,-62.29621 18.73588,-117.10854 20.34471,-121.77006 0.90238,-2.61461 6.28526,-7.48399 24.63807,-22.28774 C 452.8993,661.52399 463.87783,653 464.38016,653 c 1.10979,0 0.87065,2.8291 -4.86031,57.5 -4.85707,46.33434 -4.94713,47.5 -3.67006,47.5 0.46739,0 23.52989,-17.58297 51.25,-39.07326 27.72012,-21.4903 50.98212,-39.32089 51.69334,-39.62354 2.99755,-1.27557 3.15204,-2.73938 -5.87229,55.64068 -2.53697,16.41217 -3.58927,25.78769 -2.96451,26.41245 1.22915,1.22915 26.43931,-11.12589 37.54367,-18.39946 16.39876,-10.74152 31.07624,-24.58004 39.58565,-37.32298 2.25282,-3.37364 4.58826,-6.13389 5.18985,-6.13389 1.49203,0 3.42132,7.98973 4.82944,20 1.6197,13.81495 0.53367,36.09174 -3.50111,71.81458 -0.29252,2.58988 -2.3e-4,3.97981 0.91038,4.32925 1.45851,0.55968 11.43916,-5.90724 23.82985,-15.44045 18.75365,-14.42878 32.90921,-29.27514 44.64064,-46.81913 6.14594,-9.19107 7.02738,-11.16621 9.37808,-21.0144 6.05439,-25.36482 9.32319,-55.11312 8.17189,-74.36985 -0.86395,-14.45044 -3.19657,-31.3761 -5.60861,-40.69652 L 712.90659,589.5 718.18622,585 c 32.37925,-27.59789 54.26537,-54.66031 72.57643,-89.74152 3.55164,-6.8044 6.62051,-12.20865 6.81972,-12.00944 0.19921,0.19921 1.29408,5.28717 2.43304,11.30658 2.63534,13.92773 8.0733,33.14762 12.68645,44.83891 5.47607,13.87824 10.0762,23.60547 11.16332,23.60547 2.61452,0 15.05198,-17.49744 24.16776,-34 6.38629,-11.5613 14.53444,-30.10861 19.00046,-43.25 1.82241,-5.3625 3.61165,-9.75 3.97609,-9.75 0.36443,0 1.42479,2.7414 2.35634,6.09201 4.59154,16.51487 15.07226,30.14564 29.15731,37.92076 4.11587,2.27201 7.90173,4.91259 8.41303,5.86796 1.19906,2.24046 9.20066,42.06493 12.48111,62.11927 23.54111,143.91342 10.28087,255.32619 -40.08701,336.81199 -24.05877,38.92257 -58.37622,72.2739 -99.58798,96.78431 -11.44967,6.8096 -34.4685,18.5447 -43.99229,22.4275 -3.1625,1.2893 -5.75,2.8275 -5.75,3.4181 0,1.1853 -2.77006,2.2976 -23.88356,9.5901 -7.91096,2.7324 -15.42666,4.968 -16.70155,4.968 -1.76365,0 -3.36258,-1.6142 -6.68594,-6.75 -9.46086,-14.6203 -22.5964,-26.0077 -38.86225,-33.6903 -14.13844,-6.6777 -22.80898,-8.6981 -39.8667,-9.2895 -16.03003,-0.5557 -24.01034,0.3519 -37.57657,4.2738 -17.0759,4.9365 -39.0464,17.3986 -53.57807,30.3905 -7.64923,6.8387 -18.67075,21.5477 -24.67571,32.9315 l -4.94057,9.3659 -6.86454,0.2792 c -3.7755,0.1536 -16.31454,0.8348 -27.86454,1.5139 l -21,1.2346 -13,9.6052 c -17.86407,13.1991 -41.0782,28.5824 -57.36491,38.014 -16.40223,9.4985 -40.81358,21.776 -41.64469,20.9449 -0.32885,-0.3288 0.9353,-5.0362 2.80924,-10.4608 4.73684,-13.712 5.08084,-15.3629 3.20124,-15.3629 -0.84547,0 -5.91654,2.1937 -11.26905,4.8749 -43.19697,21.6383 -88.41118,35.8639 -129.2257,40.6577 -11.13343,1.3076 -36.58513,1.7464 -46.00613,0.7932 z m 382.16629,-92.5595 c -0.53481,-0.5348 -3.2663,-0.8135 -6.06996,-0.6194 -2.80367,0.1942 -5.09729,0.02 -5.09695,-0.3872 0.001,-1.3451 9.36357,-7.6622 18.00062,-12.1455 21.07374,-10.939 39.73768,-12.3606 58.6905,-4.4705 6.64865,2.7678 15.9703,8.5288 15.14139,9.3577 -0.65313,0.6532 -35.16551,4.4113 -50.83189,5.5352 -8.525,0.6116 -16.4,1.4957 -17.5,1.9647 -3.13614,1.337 -11.25794,1.8408 -12.33371,0.765 z M 454,557.59285 c 0,-0.77393 1.09826,-8.98643 2.44059,-18.25 5.97008,-41.20043 10.53088,-88.04507 12.54416,-128.84285 3.05027,-61.81177 4.0078,-72.85854 8.668,-100 1.41653,-8.25 4.25656,-21.75 6.31118,-30 2.05461,-8.25 3.74217,-15.9 3.75012,-17 0.024,-3.32387 7.94857,-24.77184 14.90669,-40.34529 8.58817,-19.22175 16.45589,-33.51604 27.88089,-50.65471 12.81025,-19.21669 20.59517,-28.72646 36.43772,-44.51095 26.01236,-25.91703 55.25579,-45.233068 86.60859,-57.207206 12.04401,-4.599797 16.26925,-5.822836 35.45206,-10.261959 22.41215,-5.186429 53.78241,-7.065571 75.02623,-4.494222 35.0667,4.244465 67.42863,16.628256 92.97377,35.577844 l 6.5,4.821751 -4,0.729741 c -2.2,0.401358 -7.825,0.756051 -12.5,0.788207 -16.72127,0.115014 -43.08717,3.234284 -64.5,7.630794 -53.59824,11.00486 -97.73647,33.99002 -126.32189,65.78262 -56.78631,63.15751 -52.37183,157.54524 12.4796,266.83126 3.48826,5.87833 6.34229,10.97678 6.34229,11.32988 0,0.3531 -3.55977,4.90682 -7.91061,10.11937 -4.35083,5.21255 -10.92568,13.73086 -14.61078,18.92957 -3.68509,5.19871 -7.10523,9.70254 -7.60031,10.00852 -0.49508,0.30597 -3.48273,-1.00787 -6.63922,-2.91965 -32.26664,-19.54284 -72.58129,-18.92191 -115.64535,1.78118 -24.46759,11.76283 -45.6955,33.08402 -63.03623,63.31325 -2.6029,4.5375 -4.91816,8.25 -5.14502,8.25 C 454.18562,559 454,558.36678 454,557.59285 Z M 777.63408,312.41354 c -19.13558,-4.63172 -34.82003,-22.28622 -37.63828,-42.36584 -3.71302,-26.45468 12.26519,-50.93176 37.54575,-57.51651 24.6533,-6.42137 50.35122,8.57435 59.06864,34.46881 2.7421,8.1452 2.51516,23.40789 -0.47579,32 -8.732,25.08439 -33.7874,39.39524 -58.50032,33.41354 z m 38.1761,-53.43917 c 6.98043,-4.25586 7.47823,-13.02957 1.04634,-18.44164 -3.627,-3.05193 -10.22659,-3.42139 -13.38728,-0.74946 -5.71295,4.82953 -6.90595,10.34803 -3.45918,16.00129 3.30867,5.42676 9.93642,6.7648 15.80012,3.18981 z"
       id="path166"
       inkscape:connector-curvature="0" />
    <path
       style="fill:#43b347"
       d="m 139,1181.3258 c -36.13798,-3.6566 -66.122405,-17.3415 -81.34658,-37.1264 -16.930006,-22.0018 -17.797541,-44.9409 -2.292385,-60.6145 10.807946,-10.9254 24.268272,-16.586 47.638965,-20.034 17.34649,-2.5593 28.89768,-2.8805 108.5,-3.0175 54.83137,-0.094 83.28305,-0.5245 93,-1.4062 22.38586,-2.0313 43.53789,-4.9138 45.00752,-6.1334 2.35838,-1.9573 14.29444,-54.7589 23.39528,-103.4938 6.62551,-35.47953 12.2702,-69.58087 22.09784,-133.5 9.57812,-62.29621 18.73588,-117.10854 20.34471,-121.77006 0.90238,-2.61461 6.28526,-7.48399 24.63807,-22.28774 C 452.8993,661.52399 463.87783,653 464.38016,653 c 1.10979,0 0.87065,2.8291 -4.86031,57.5 -4.85707,46.33434 -4.94713,47.5 -3.67006,47.5 0.46739,0 23.52989,-17.58297 51.25,-39.07326 27.72012,-21.4903 50.98212,-39.32089 51.69334,-39.62354 2.99755,-1.27557 3.15204,-2.73938 -5.87229,55.64068 -2.53697,16.41217 -3.58927,25.78769 -2.96451,26.41245 1.22915,1.22915 26.43931,-11.12589 37.54367,-18.39946 16.39876,-10.74152 31.07624,-24.58004 39.58565,-37.32298 2.25282,-3.37364 4.58826,-6.13389 5.18985,-6.13389 1.49203,0 3.42132,7.98973 4.82944,20 1.6197,13.81495 0.53367,36.09174 -3.50111,71.81458 -0.29252,2.58988 -2.3e-4,3.97981 0.91038,4.32925 1.45851,0.55968 11.43916,-5.90724 23.82985,-15.44045 18.75365,-14.42878 32.90921,-29.27514 44.64064,-46.81913 6.14594,-9.19107 7.02738,-11.16621 9.37808,-21.0144 9.92801,-41.5933 10.85263,-82.84095 2.57936,-115.06637 l -2.0034,-7.80348 3.76226,-3 c 29.59823,-23.60142 55.25336,-55.2077 74.06165,-91.24152 3.55164,-6.8044 6.62051,-12.20865 6.81972,-12.00944 0.19921,0.19921 1.29408,5.28717 2.43304,11.30658 2.63534,13.92773 8.0733,33.14762 12.68645,44.83891 5.47607,13.87824 10.0762,23.60547 11.16332,23.60547 2.61452,0 15.05198,-17.49744 24.16776,-34 6.38629,-11.5613 14.53444,-30.10861 19.00046,-43.25 1.82241,-5.3625 3.61165,-9.75 3.97609,-9.75 0.36443,0 1.44297,2.80679 2.39674,6.23731 3.34883,12.04509 12.10994,25.65765 21.09377,32.77442 2.2,1.74278 6.80436,4.73728 10.23191,6.65443 7.26943,4.06606 6.38431,1.82181 12.16063,30.83384 36.41726,182.90872 17.0315,317.71127 -58.45817,406.5 -8.87848,10.4426 -27.35536,28.54164 -37.44663,36.68085 -29.82848,24.05845 -68.5393,45.13355 -108.98774,59.33565 -20.3652,7.1505 -19.21657,7.1111 -23.25955,0.7972 -9.74991,-15.2263 -22.63472,-26.7197 -39.0326,-34.8176 -15.42125,-7.6156 -26.74984,-10.2132 -45.20785,-10.366 -27.11382,-0.2245 -47.15072,6.1716 -72.37291,23.1026 -18.42403,12.3676 -32.6928,28.4648 -42.44359,47.8826 l -3.57302,7.1154 -6.80524,0.6125 c -3.74288,0.3368 -16.03024,1.132 -27.30524,1.767 l -20.5,1.1546 -13,9.6026 c -17.87881,13.2064 -41.08917,28.5861 -57.36491,38.0114 -16.40223,9.4985 -40.81358,21.776 -41.64469,20.9449 -0.32885,-0.3288 0.9353,-5.0362 2.80924,-10.4608 4.73684,-13.712 5.08084,-15.3629 3.20124,-15.3629 -0.84547,0 -5.91654,2.1937 -11.26905,4.8749 -43.19697,21.6383 -88.41118,35.8639 -129.2257,40.6577 -11.13343,1.3076 -36.58513,1.7464 -46.00613,0.7932 z m 373,-93.7885 c 0,-1.1141 12.96649,-9.1189 20.38117,-12.5823 11.44358,-5.3452 19.37718,-7.2017 30.61883,-7.1649 10.77483,0.035 21.56464,2.9199 30.75,8.2206 8.4363,4.8685 8.16306,5.0114 -14.25,7.4516 -30.86487,3.3603 -67.5,5.572 -67.5,4.075 z M 454,557.59285 c 0,-0.77393 1.09826,-8.98643 2.44059,-18.25 7.10577,-49.03799 11.36516,-96.14658 13.54827,-149.84285 1.37753,-33.88197 1.20774,-32.90755 6.25881,-35.91965 2.27247,-1.35513 4.44162,-2.27238 4.82034,-2.03832 0.37872,0.23406 0.98197,7.07036 1.34057,15.19177 2.12975,48.2346 7.27382,78.09074 17.57689,102.0162 1.24345,2.8875 2.61548,5.25 3.04895,5.25 0.43347,0 3.41015,-2.55991 6.61485,-5.6887 3.20469,-3.12878 18.20712,-16.50404 33.33872,-29.7228 15.13161,-13.21876 32.5432,-28.65885 38.69242,-34.3113 C 587.82964,398.62474 593.24373,394 593.71172,394 c 1.23849,0 1.02927,76.32324 -0.21172,77.23347 -0.55,0.40341 -2.35,0.48806 -4,0.18811 -4.40039,-0.79995 -23.70093,1.36471 -33.5,3.7572 -42.45789,10.36628 -72.57656,33.96691 -96.4425,75.57122 -2.6029,4.5375 -4.91816,8.25 -5.14502,8.25 C 454.18562,559 454,558.36678 454,557.59285 Z M 777.26455,311.45841 C 761.47413,307.20586 749.33403,295.89319 742.96863,279.5 c -3.2532,-8.37814 -3.31341,-25.17918 -0.12157,-33.91927 5.90965,-16.18216 19.79759,-28.74545 35.99947,-32.56582 6.99696,-1.64987 19.11478,-0.84884 26.32132,1.73993 23.55226,8.46058 37.59415,35.28007 31.3017,59.78506 -2.34179,9.11973 -6.12593,16.0196 -12.55495,22.89224 -12.11899,12.95523 -30.31371,18.42584 -46.65005,14.02627 z m 41.4511,-53.84519 c 5.34172,-5.82883 4.30251,-14.32563 -2.28308,-18.66688 -5.99767,-3.95369 -14.52326,-1.53921 -17.94766,5.08284 -2.10955,4.07943 -1.84141,8.14605 0.79511,12.05837 3.07641,4.56509 6.28212,6.08827 11.68563,5.55238 3.54449,-0.35151 5.14314,-1.18214 7.75,-4.02671 z"
       id="path164"
       inkscape:connector-curvature="0" />
    <path
       style="fill:#996631"
       d="m 137,1180.3051 c -46.389465,-4.968 -81.279276,-27.2687 -89.121914,-56.9646 -2.712489,-10.2708 -2.257099,-21.6 1.159267,-28.8405 5.381694,-11.4057 20.866262,-22.0921 38.426649,-26.5197 20.386258,-5.14 25.419948,-5.392 111.035998,-5.5601 87.83494,-0.1724 105.28482,-0.9027 144.75,-6.0574 2.6125,-0.3413 4.75,-0.4211 4.75,-0.1773 0,0.2437 -2.475,9.5697 -5.5,20.7244 -3.025,11.1546 -5.5,21.3137 -5.5,22.5757 0,1.262 -2.025,8.9432 -4.5,17.0693 -2.475,8.1262 -4.5,14.9449 -4.5,15.1528 0,0.2078 -7.17,3.8973 -15.93334,8.1987 -43.91006,21.5531 -85.34659,34.636 -125.40932,39.5959 -10.95295,1.356 -40.09279,1.8271 -49.65734,0.8028 z m 299.07145,-89.9075 c 0.0393,-0.4937 4.20181,-4.14 9.25,-8.1029 60.7445,-47.6856 129.42713,-119.84535 176.3659,-185.2947 39.43542,-54.98699 63.96726,-101.32774 83.25241,-157.26413 12.78565,-37.08464 16.44586,-57.57713 16.4745,-92.23587 0.0187,-22.59397 -0.75647,-30.67761 -4.5931,-47.89956 l -2.20537,-9.89957 5.9421,-5.06454 c 3.26816,-2.7855 11.44735,-10.45046 18.17597,-17.03324 6.72862,-6.58279 12.44752,-11.75505 12.70866,-11.49391 3.46884,3.46884 4.32936,67.79752 1.20246,89.89082 -4.71195,33.29264 -11.33471,61.78503 -21.61686,93 -12.47287,37.86564 -22.21508,59.95399 -44.88903,101.77614 -26.78274,49.40082 -37.9647,74.39178 -43.89917,98.1118 -3.64381,14.5643 -3.88285,34.98536 -0.53391,45.61206 2.90171,9.20759 10.73804,22.1752 19.076,31.5672 9.94139,11.1981 23.09886,22.9328 25.71325,22.9328 2.66767,0 29.85701,-9.1545 44.50474,-14.9845 40.29297,-16.0373 76.51578,-38.84817 102.54392,-64.57594 81.19584,-80.25882 102.19687,-211.86656 66.82272,-418.75966 -1.95788,-11.45105 -3.34762,-21.03225 -3.08831,-21.29156 0.2593,-0.25931 3.23023,1.00974 6.60205,2.8201 7.12601,3.82601 6.44549,2.1948 11.6716,27.97679 19.89579,98.15206 23.61878,185.89174 10.85479,255.81477 -17.55079,96.14584 -63.83486,166.38239 -140.62137,213.3944 -12.18956,7.4629 -32.93995,18.0292 -49.80881,25.3631 -11.33176,4.9266 -39.9931,15.2425 -42.34921,15.2425 -0.66176,0 -3.07003,-2.8125 -5.35172,-6.25 -9.8069,-14.7747 -22.62806,-25.9728 -38.6377,-33.7466 -26.44423,-12.8406 -55.95076,-14.1757 -85.4517,-3.8668 -17.82226,6.2279 -39.09523,19.6298 -52.3074,32.9535 -7.85527,7.9215 -18.58446,23.0615 -23.49446,33.153 -3.23597,6.6509 -2.36086,6.3553 -21.3844,7.2251 -6.875,0.3143 -16.6625,0.854 -21.75,1.1992 -5.27769,0.3582 -9.21931,0.2423 -9.17855,-0.2698 z m 82.7927,-6.992 c 18.22018,-12.2702 37.67458,-17.2809 54.23007,-13.9676 8.83314,1.7679 25.7883,9.1265 24.27129,10.534 -1.65922,1.5393 -61.24861,7.028 -76.30206,7.028 H 513.5267 Z M 455.45704,551.75 c 0.77277,-3.51155 4.32061,-29.54582 6.50716,-47.75 4.45709,-37.1075 7.34826,-74.35601 9.04256,-116.5 0.57489,-14.3 1.27063,-27.02646 1.54609,-28.28102 0.42465,-1.9341 5.61626,-6.20336 7.558,-6.21524 0.33596,-0.002 0.92059,7.30876 1.29917,16.24626 1.34314,31.7086 3.82022,52.53995 8.6298,72.57329 3.20491,13.34942 10.32421,32.78358 12.25991,33.46691 0.66015,0.23304 4.80027,-3.00406 9.20027,-7.19356 4.4,-4.18949 22.175,-20.04804 39.5,-35.24121 17.325,-15.19316 33.975,-29.8618 37,-32.59696 l 5.5,-4.97303 -0.26866,37.10728 -0.26865,37.10728 -11.73135,0.62488 c -19.33848,1.03009 -37.40533,5.76227 -57.1203,14.96132 -24.35601,11.36456 -46.37633,32.25044 -62.51275,59.29225 C 458.44052,549.6703 455.65553,554 455.4094,554 c -0.24613,0 -0.22469,-1.0125 0.0476,-2.25 z M 777.26455,311.45841 C 761.47413,307.20586 749.33403,295.89319 742.96863,279.5 c -3.2532,-8.37814 -3.31341,-25.17918 -0.12157,-33.91927 5.90965,-16.18216 19.79759,-28.74545 35.99947,-32.56582 6.99696,-1.64987 19.11478,-0.84884 26.32132,1.73993 23.55226,8.46058 37.59415,35.28007 31.3017,59.78506 -2.34179,9.11973 -6.12593,16.0196 -12.55495,22.89224 -12.11899,12.95523 -30.31371,18.42584 -46.65005,14.02627 z m 41.4511,-53.84519 c 5.34172,-5.82883 4.30251,-14.32563 -2.28308,-18.66688 -5.99767,-3.95369 -14.52326,-1.53921 -17.94766,5.08284 -2.10955,4.07943 -1.84141,8.14605 0.79511,12.05837 3.07641,4.56509 6.28212,6.08827 11.68563,5.55238 3.54449,-0.35151 5.14314,-1.18214 7.75,-4.02671 z"
       id="path162"
       inkscape:connector-curvature="0" />
    <path
       style="fill:#1ea949"
       d="m 137,1180.3051 c -46.389465,-4.968 -81.279276,-27.2687 -89.121914,-56.9646 -2.712489,-10.2708 -2.257099,-21.6 1.159267,-28.8405 5.381694,-11.4057 20.866262,-22.0921 38.426649,-26.5197 20.386258,-5.14 25.419948,-5.392 111.035998,-5.5601 87.83494,-0.1724 105.28482,-0.9027 144.75,-6.0574 2.6125,-0.3413 4.75,-0.4211 4.75,-0.1773 0,0.2437 -2.475,9.5697 -5.5,20.7244 -3.025,11.1546 -5.5,21.3137 -5.5,22.5757 0,1.262 -2.025,8.9432 -4.5,17.0693 -2.475,8.1262 -4.5,14.9449 -4.5,15.1528 0,0.2078 -7.17,3.8973 -15.93334,8.1987 -43.91006,21.5531 -85.34659,34.636 -125.40932,39.5959 -10.95295,1.356 -40.09279,1.8271 -49.65734,0.8028 z m 299.07145,-89.9075 c 0.0393,-0.4937 4.20181,-4.14 9.25,-8.1029 60.7445,-47.6856 129.42713,-119.84535 176.3659,-185.2947 39.43542,-54.98699 63.96726,-101.32774 83.25241,-157.26413 12.78565,-37.08464 16.44586,-57.57713 16.4745,-92.23587 0.0187,-22.59397 -0.75647,-30.67761 -4.5931,-47.89956 l -2.20537,-9.89957 5.9421,-5.06454 c 3.26816,-2.7855 11.44735,-10.45046 18.17597,-17.03324 6.72862,-6.58279 12.44752,-11.75505 12.70866,-11.49391 3.46884,3.46884 4.32936,67.79752 1.20246,89.89082 -4.71195,33.29264 -11.33471,61.78503 -21.61686,93 -12.47287,37.86564 -22.21508,59.95399 -44.88903,101.77614 -26.78274,49.40082 -37.9647,74.39178 -43.89917,98.1118 -3.64381,14.5643 -3.88285,34.98536 -0.53391,45.61206 2.90171,9.20759 10.73804,22.1752 19.076,31.5672 9.94139,11.1981 23.09886,22.9328 25.71325,22.9328 2.66767,0 29.85701,-9.1545 44.50474,-14.9845 40.29297,-16.0373 76.51578,-38.84817 102.54392,-64.57594 81.19584,-80.25882 102.19687,-211.86656 66.82272,-418.75966 -1.95788,-11.45105 -3.34762,-21.03225 -3.08831,-21.29156 0.2593,-0.25931 3.23023,1.00974 6.60205,2.8201 7.12601,3.82601 6.44549,2.1948 11.6716,27.97679 19.89579,98.15206 23.61878,185.89174 10.85479,255.81477 -17.55079,96.14584 -63.83486,166.38239 -140.62137,213.3944 -12.18956,7.4629 -32.93995,18.0292 -49.80881,25.3631 -11.33176,4.9266 -39.9931,15.2425 -42.34921,15.2425 -0.66176,0 -3.07003,-2.8125 -5.35172,-6.25 -9.8069,-14.7747 -22.62806,-25.9728 -38.6377,-33.7466 -26.44423,-12.8406 -55.95076,-14.1757 -85.4517,-3.8668 -17.82226,6.2279 -39.09523,19.6298 -52.3074,32.9535 -7.85527,7.9215 -18.58446,23.0615 -23.49446,33.153 -3.23597,6.6509 -2.36086,6.3553 -21.3844,7.2251 -6.875,0.3143 -16.6625,0.854 -21.75,1.1992 -5.27769,0.3582 -9.21931,0.2423 -9.17855,-0.2698 z m 82.7927,-6.992 c 18.22018,-12.2702 37.67458,-17.2809 54.23007,-13.9676 8.83314,1.7679 25.7883,9.1265 24.27129,10.534 -1.65922,1.5393 -61.24861,7.028 -76.30206,7.028 H 513.5267 Z M 455.45704,551.75 c 0.77277,-3.51155 4.32061,-29.54582 6.50716,-47.75 4.45709,-37.1075 7.34826,-74.35601 9.04256,-116.5 0.57489,-14.3 1.27063,-27.02646 1.54609,-28.28102 0.42465,-1.9341 5.61626,-6.20336 7.558,-6.21524 0.33596,-0.002 0.92059,7.30876 1.29917,16.24626 1.34314,31.7086 3.82022,52.53995 8.6298,72.57329 3.20491,13.34942 10.32421,32.78358 12.25991,33.46691 0.66015,0.23304 4.80027,-3.00406 9.20027,-7.19356 4.4,-4.18949 22.175,-20.04804 39.5,-35.24121 17.325,-15.19316 33.975,-29.8618 37,-32.59696 l 5.5,-4.97303 -0.26866,37.10728 -0.26865,37.10728 -11.73135,0.62488 c -19.33848,1.03009 -37.40533,5.76227 -57.1203,14.96132 -24.35601,11.36456 -46.37633,32.25044 -62.51275,59.29225 C 458.44052,549.6703 455.65553,554 455.4094,554 c -0.24613,0 -0.22469,-1.0125 0.0476,-2.25 z M 787.5,282.15679 C 779.58329,278.38727 775,270.99651 775,262 c 0,-11.59284 8.02264,-20.70073 19.90823,-22.60132 4.51195,-0.72149 5.26445,0.4668 2.55997,4.04245 -3.27303,4.32733 -1.14059,13.31161 4.14668,17.47057 3.21978,2.53269 11.93709,2.89441 14.94399,0.6201 3.16081,-2.39072 3.74847,-1.79077 3.07302,3.13723 -0.85516,6.23908 -4.57935,12.32956 -9.71585,15.88915 -5.5204,3.82565 -16.1472,4.5835 -22.41604,1.59861 z"
       id="path160"
       inkscape:connector-curvature="0" />
  </g>
</svg>
