<?xml version="1.0" encoding="utf-8"?>
<!-- Generator: Adobe Illustrator 24.3.0, SVG Export Plug-In . SVG Version: 6.00 Build 0)  -->
<svg version="1.1" id="Calque_1" xmlns="http://www.w3.org/2000/svg" xmlns:xlink="http://www.w3.org/1999/xlink" x="0px" y="0px"
	 viewBox="0 0 200 200" style="enable-background:new 0 0 200 200;" xml:space="preserve">
<style type="text/css">
	.st0{fill:#020203;}
</style>
<g>
	<g>
		<g>
			<path class="st0" d="M129.15,21.62H70.52c-26.98,0-48.85,21.88-48.85,48.85v58.62c0,26.98,21.88,48.85,48.85,48.85h58.62
				c26.98,0,48.85-21.88,48.85-48.85V70.47C178,43.5,156.12,21.62,129.15,21.62z M163.34,129.1c0,18.86-15.34,34.2-34.2,34.2H70.52
				c-18.86,0-34.2-15.34-34.2-34.2V70.47c0-18.86,15.34-34.2,34.2-34.2h58.62c18.86,0,34.2,15.34,34.2,34.2V129.1z"/>
		</g>
	</g>
	<g>
		<g>
			<path class="st0" d="M99.83,60.7c-21.58,0-39.08,17.5-39.08,39.08s17.5,39.08,39.08,39.08s39.08-17.5,39.08-39.08
				S121.42,60.7,99.83,60.7z M99.83,124.21c-13.46,0-24.43-10.96-24.43-24.43c0-13.47,10.96-24.43,24.43-24.43
				s24.43,10.95,24.43,24.43C124.26,113.25,113.3,124.21,99.83,124.21z"/>
		</g>
	</g>
	<g>
		<g>
			<circle class="st0" cx="141.85" cy="57.77" r="5.21"/>
		</g>
	</g>
</g>
</svg>
