<?xml version="1.0" encoding="utf-8"?>
<!-- Generator: Adobe Illustrator 25.0.1, SVG Export Plug-In . SVG Version: 6.00 Build 0)  -->
<!DOCTYPE svg PUBLIC "-//W3C//DTD SVG 1.1//EN" "http://www.w3.org/Graphics/SVG/1.1/DTD/svg11.dtd" [
	<!ENTITY ns_extend "http://ns.adobe.com/Extensibility/1.0/">
	<!ENTITY ns_ai "http://ns.adobe.com/AdobeIllustrator/10.0/">
	<!ENTITY ns_graphs "http://ns.adobe.com/Graphs/1.0/">
	<!ENTITY ns_vars "http://ns.adobe.com/Variables/1.0/">
	<!ENTITY ns_imrep "http://ns.adobe.com/ImageReplacement/1.0/">
	<!ENTITY ns_sfw "http://ns.adobe.com/SaveForWeb/1.0/">
	<!ENTITY ns_custom "http://ns.adobe.com/GenericCustomNamespace/1.0/">
	<!ENTITY ns_adobe_xpath "http://ns.adobe.com/XPath/1.0/">
]>
<svg version="1.1" id="Calque_1" xmlns:x="&ns_extend;" xmlns:i="&ns_ai;" xmlns:graph="&ns_graphs;"
	 xmlns="http://www.w3.org/2000/svg" xmlns:xlink="http://www.w3.org/1999/xlink" x="0px" y="0px" width="156.3px" height="45.5px"
	 viewBox="0 0 156.3 45.5" style="enable-background:new 0 0 156.3 45.5;" xml:space="preserve">
<style type="text/css">
	.st-yellow{fill:#ffad64;}
	.st1{fill:#ADD4D3;}
	.st2{fill:#FB8351;}
	.st3{fill-rule:evenodd;clip-rule:evenodd;fill:#333237;}
	.st4{fill:#333237;}
</style>
<metadata>
	<sfw  xmlns="&ns_sfw;">
		<slices></slices>
		<sliceSourceBounds  bottomLeftOrigin="true" height="41.3" width="152.5" x="12.3" y="29.4"></sliceSourceBounds>
	</sfw>
</metadata>
<path class="st-yellow" d="M14.5,40.7l-4.2-7.2l6.1-10.6l3.9,6.7l23,0l-6.5,11.2L14.5,40.7z"/>
<path class="st1" d="M47.4,22.4l-4.2,7.2l-12.2,0l3.9-6.7L23.4,3l12.9,0.1L47.4,22.4z"/>
<path class="st2" d="M15.1,3h8.4l6.1,10.6l-7.8,0L10.3,33.5L3.9,22.2L15.1,3z"/>
<path class="st3" d="M24.5,1.3L24.5,1.3l-10.4,0l-12.2,21l8.4,14.7l0,0l3.2,5.5l24.3,0.1l8.5-14.6h-0.1l3.2-5.5l-12-21.1L24.5,1.3z
	 M32.5,15.3L32.5,15.3l-6-10.5l8.9,0l10.1,17.7l-3.2,5.5l-8.3,0l2.9-5L32.5,15.3z M22.4,4.7l4.1,7.2l-5.7,0l-9.8,17L10.3,30
	l-4.4-7.8L16.1,4.7H22.4z M18.4,22.9l4.4-7.6l5.7,0l4.4,7.6l-2.9,5l-8.7,0L18.4,22.9z M12.3,33.5l1.7-2.9l2.5-4.3l2.9,5l8.7,0l0,0
	l12.3,0l-4.5,7.7L15.5,39L12.3,33.5z"/>
<path class="st4" d="M59.4,36.5v-8h-3v-0.9h7.1v0.9h-3v8H59.4z"/>
<path class="st4" d="M66.7,36.7c-1.2,0-2.1-0.3-2.6-0.8c-0.6-0.6-0.9-1.4-0.9-2.6c0-1.1,0.2-1.9,0.8-2.5c0.5-0.6,1.3-0.9,2.4-0.9
	c0.6,0,1.2,0.1,1.6,0.4c0.4,0.2,0.7,0.6,0.9,1c0.2,0.4,0.3,0.9,0.3,1.4v1.2h-4.9c0,0.5,0.1,0.9,0.3,1.2c0.2,0.3,0.5,0.5,0.8,0.6
	c0.4,0.1,0.9,0.2,1.5,0.2c0.7,0,1.3-0.1,1.9-0.3v0.9c-0.3,0.1-0.6,0.2-1,0.3C67.4,36.6,67.1,36.7,66.7,36.7z M64.3,32.9h3.9v-0.5
	c0-0.5-0.1-0.9-0.4-1.2c-0.3-0.3-0.7-0.4-1.4-0.4c-0.8,0-1.3,0.2-1.6,0.6C64.4,31.7,64.3,32.2,64.3,32.9z"/>
<path class="st4" d="M73.9,36.7c-1.1,0-2-0.3-2.6-0.9c-0.6-0.6-0.8-1.4-0.8-2.5c0-1.2,0.3-2,0.9-2.6c0.6-0.6,1.5-0.8,2.5-0.8
	c0.4,0,0.8,0,1.1,0.1c0.3,0.1,0.6,0.1,0.8,0.3v0.9c-0.5-0.2-1.1-0.4-1.7-0.4c-0.8,0-1.4,0.2-1.9,0.6c-0.4,0.4-0.7,1-0.7,1.9
	c0,0.9,0.2,1.5,0.6,1.9c0.4,0.4,1,0.6,1.9,0.6c0.6,0,1.2-0.1,1.8-0.4v0.9c-0.3,0.1-0.6,0.2-0.9,0.3C74.7,36.6,74.3,36.7,73.9,36.7z"
	/>
<path class="st4" d="M77.2,36.5v-9.4h1.1v3.5c0.3-0.2,0.7-0.5,1.1-0.6c0.4-0.2,0.9-0.2,1.4-0.2c0.8,0,1.4,0.2,1.8,0.6
	c0.4,0.4,0.6,1,0.6,1.8v4.3h-1.1v-4.3c0-0.6-0.1-1-0.4-1.2c-0.2-0.2-0.7-0.3-1.3-0.3c-0.4,0-0.8,0.1-1.2,0.2c-0.4,0.2-0.7,0.4-1,0.6
	v4.9H77.2z"/>
<path class="st2" d="M87.8,36.7c-0.9,0-1.7-0.2-2.2-0.6c-0.6-0.4-0.8-1-0.8-1.6c0-0.6,0.2-1.2,0.6-1.6c0.4-0.5,0.9-0.9,1.6-1.2
	c-0.4-0.4-0.7-0.7-0.9-1s-0.4-0.7-0.4-1.1c0-0.6,0.2-1,0.6-1.4c0.4-0.4,0.9-0.6,1.6-0.6c0.7,0,1.2,0.2,1.6,0.5
	c0.4,0.4,0.6,0.8,0.6,1.4c0,0.5-0.1,0.9-0.4,1.3c-0.3,0.3-0.7,0.7-1.2,1l2.3,2.3c0.2-0.3,0.2-0.8,0.2-1.3v-0.2h0.9v0.2
	c0,0.4,0,0.7-0.1,1.1c-0.1,0.3-0.2,0.6-0.4,0.9l1.2,1.3L92,36.6l-1.1-1.1c-0.3,0.4-0.7,0.7-1.3,0.9C89.1,36.6,88.5,36.7,87.8,36.7z
	 M87.8,31.2c0.4-0.3,0.8-0.5,1-0.8c0.2-0.2,0.3-0.6,0.3-0.9c0-0.4-0.1-0.6-0.3-0.8c-0.2-0.2-0.5-0.3-0.9-0.3c-0.4,0-0.8,0.1-1,0.3
	c-0.2,0.2-0.3,0.5-0.3,0.8c0,0.3,0.1,0.6,0.3,0.8C87.1,30.5,87.4,30.8,87.8,31.2z M87.8,35.9c0.5,0,1-0.1,1.4-0.2
	c0.4-0.2,0.7-0.4,1-0.7l-2.5-2.6c-0.6,0.3-1.1,0.6-1.3,0.9c-0.3,0.3-0.4,0.7-0.4,1.2c0,0.5,0.2,0.8,0.6,1.1
	C86.8,35.7,87.3,35.9,87.8,35.9z"/>
<path class="st2" d="M56.9,21.1V8.7h3.6v9.6h5.6v2.8H56.9z"/>
<path class="st2" d="M71.9,21.3c-1.8,0-3.2-0.4-4-1.2c-0.9-0.8-1.3-2-1.3-3.5c0-1.5,0.4-2.7,1.3-3.5c0.9-0.8,2.2-1.2,4-1.2
	c1.8,0,3.2,0.4,4,1.2c0.9,0.8,1.3,2,1.3,3.5c0,1.6-0.4,2.7-1.3,3.5C75.1,20.9,73.7,21.3,71.9,21.3z M71.9,18.7c0.6,0,1-0.2,1.3-0.5
	c0.3-0.3,0.4-0.9,0.4-1.6c0-0.7-0.1-1.3-0.4-1.6c-0.3-0.3-0.7-0.5-1.3-0.5c-0.6,0-1,0.2-1.2,0.5c-0.3,0.3-0.4,0.9-0.4,1.6
	c0,0.7,0.1,1.3,0.4,1.6C70.9,18.5,71.3,18.7,71.9,18.7z"/>
<path class="st2" d="M82.6,24.5c-0.4,0-0.9,0-1.5-0.1c-0.5,0-1-0.1-1.5-0.2c-0.5-0.1-0.8-0.2-1.2-0.3v-2.3c0.3,0.1,0.7,0.2,1.2,0.3
	c0.5,0.1,0.9,0.1,1.4,0.2c0.5,0,0.9,0.1,1.3,0.1c0.7,0,1.2,0,1.6-0.1c0.4-0.1,0.6-0.2,0.6-0.4c0-0.2-0.1-0.3-0.2-0.3
	c-0.1,0-0.4-0.1-0.7-0.1h-2.4c-0.9,0-1.7-0.1-2.2-0.4c-0.5-0.3-0.8-0.8-0.8-1.4c0-0.8,0.5-1.4,1.4-1.8c-0.5-0.3-0.9-0.6-1.2-1
	c-0.2-0.4-0.4-0.9-0.4-1.6c0-1.2,0.4-2,1.2-2.6c0.8-0.6,2-0.8,3.5-0.8c0.3,0,0.7,0,1.1,0.1c0.4,0,0.7,0.1,0.9,0.1h3.6l-0.1,2.2h-1.2
	c0.2,0.3,0.3,0.7,0.3,1.1c0,0.9-0.3,1.7-0.8,2.2c-0.5,0.5-1.4,0.8-2.6,0.8c-0.2,0-0.3,0-0.5,0c-0.2,0-0.4,0-0.5-0.1
	c-0.3,0-0.5,0.1-0.7,0.2S82,18.6,82,18.7c0,0.1,0.1,0.2,0.2,0.3c0.1,0,0.3,0.1,0.5,0.1h2.1c0.9,0,1.7,0.2,2.2,0.7
	c0.5,0.4,0.8,1.1,0.8,1.9c0,0.9-0.4,1.6-1.2,2.1C85.6,24.2,84.3,24.5,82.6,24.5z M82.9,16.3c0.6,0,1-0.1,1.2-0.3
	c0.2-0.2,0.3-0.5,0.3-1c0-0.4-0.1-0.8-0.3-1c-0.2-0.2-0.6-0.3-1.2-0.3c-0.5,0-0.9,0.1-1.2,0.3c-0.2,0.2-0.3,0.5-0.3,1
	c0,0.4,0.1,0.8,0.3,1C82,16.2,82.3,16.3,82.9,16.3z"/>
<path class="st2" d="M94.3,21.3c-1.8,0-3.2-0.4-4-1.2c-0.9-0.8-1.3-2-1.3-3.5c0-1.5,0.4-2.7,1.3-3.5c0.9-0.8,2.2-1.2,4-1.2
	c1.8,0,3.2,0.4,4,1.2c0.9,0.8,1.3,2,1.3,3.5c0,1.6-0.4,2.7-1.3,3.5C97.5,20.9,96.1,21.3,94.3,21.3z M94.3,18.7c0.6,0,1-0.2,1.3-0.5
	c0.3-0.3,0.4-0.9,0.4-1.6c0-0.7-0.1-1.3-0.4-1.6c-0.3-0.3-0.7-0.5-1.3-0.5c-0.6,0-1,0.2-1.3,0.5c-0.3,0.3-0.4,0.9-0.4,1.6
	c0,0.7,0.1,1.3,0.4,1.6C93.3,18.5,93.7,18.7,94.3,18.7z"/>
<path class="st4" d="M101.2,10.8V8.2h3.9v2.6H101.2z M101.5,21.1v-6.5h-1.3l0.3-2.6h4.6v9.1H101.5z"/>
<path class="st4" d="M106.9,25.2V12h3.1l0.2,0.7c0.4-0.3,0.8-0.5,1.2-0.7c0.4-0.2,1-0.2,1.6-0.2c1.4,0,2.4,0.3,3.1,1
	c0.7,0.7,1.1,1.8,1.1,3.5c0,1.6-0.4,2.9-1.2,3.7c-0.8,0.8-1.9,1.3-3.2,1.3c-0.9,0-1.7-0.2-2.3-0.5v4.5H106.9z M111.9,18.7
	c0.5,0,0.9-0.2,1.2-0.6c0.3-0.4,0.4-0.9,0.4-1.7c0-0.8-0.1-1.3-0.4-1.5c-0.3-0.3-0.7-0.4-1.2-0.4c-0.5,0-1,0.2-1.4,0.5v3.2
	c0.2,0.2,0.4,0.3,0.6,0.3S111.6,18.7,111.9,18.7z"/>
<path class="st4" d="M122,21.3c-0.8,0-1.5-0.1-2.2-0.2c-0.7-0.1-1.2-0.2-1.6-0.4v-2.6c0.4,0.2,1,0.4,1.6,0.5
	c0.6,0.1,1.2,0.2,1.6,0.2c0.5,0,0.8,0,1,0c0.2,0,0.4-0.1,0.4-0.3c0-0.2-0.2-0.4-0.6-0.5c-0.4-0.1-1-0.3-1.6-0.5
	c-0.8-0.3-1.5-0.6-1.9-1c-0.4-0.4-0.6-1-0.6-1.7c0-0.9,0.4-1.6,1.1-2.1c0.7-0.5,1.8-0.8,3.4-0.8c0.6,0,1.2,0,1.8,0.1
	c0.6,0.1,1.1,0.2,1.5,0.3v2.5c-0.4-0.2-0.8-0.3-1.3-0.4c-0.4-0.1-0.9-0.1-1.2-0.1c-0.4,0-0.8,0-1.1,0.1c-0.3,0-0.5,0.1-0.5,0.3
	c0,0.2,0.2,0.4,0.5,0.4c0.4,0.1,0.9,0.2,1.5,0.4c0.7,0.2,1.2,0.4,1.6,0.7c0.4,0.2,0.7,0.5,0.8,0.9c0.2,0.3,0.2,0.8,0.2,1.3
	c0,0.9-0.4,1.6-1.1,2.2C124.6,21,123.5,21.3,122,21.3z"/>
<path class="st4" d="M131.2,21.3c-1.1,0-1.9-0.3-2.5-0.9c-0.6-0.6-0.9-1.5-0.9-2.7V12h3.6v5.5c0,0.8,0.4,1.2,1.2,1.2
	c0.3,0,0.6-0.1,0.9-0.2s0.5-0.3,0.7-0.5v-6h3.6v9.1h-3.4l-0.1-0.7c-0.4,0.3-0.8,0.5-1.3,0.6C132.4,21.2,131.8,21.3,131.2,21.3z"/>
<path class="st4" d="M139.5,21.1V12h3.3l0.1,0.7c0.4-0.3,0.8-0.5,1.3-0.7c0.5-0.2,1-0.3,1.6-0.3c0.6,0,1.1,0.1,1.4,0.2
	c0.3,0.2,0.6,0.4,0.8,0.7c0.4-0.3,0.9-0.5,1.4-0.7c0.5-0.2,1.1-0.3,1.8-0.3c1.1,0,1.8,0.3,2.3,0.8c0.5,0.6,0.8,1.4,0.8,2.5v5.9h-3.6
	v-5.5c0-0.4-0.1-0.7-0.2-0.9c-0.2-0.2-0.4-0.3-0.8-0.3c-0.5,0-0.9,0.2-1.2,0.5c0,0.2,0,0.3,0,0.5c0,0.1,0,0.3,0,0.5v5.1h-3.3v-5.6
	c0-0.4-0.1-0.6-0.2-0.8c-0.1-0.2-0.4-0.3-0.7-0.3c-0.2,0-0.5,0.1-0.7,0.2s-0.4,0.3-0.6,0.5v6H139.5z"/>
<path class="st4" d="M98.6,36.8c-1,0-1.8-0.2-2.4-0.5c-0.6-0.4-1.1-0.9-1.4-1.5c-0.3-0.7-0.5-1.4-0.5-2.3c0-1,0.1-1.8,0.4-2.5
	c0.3-0.7,0.8-1.3,1.4-1.7c0.6-0.4,1.4-0.6,2.4-0.6c0.5,0,1,0,1.4,0.1c0.4,0.1,0.8,0.2,1.2,0.3v1c-0.4-0.1-0.8-0.2-1.2-0.3
	c-0.4-0.1-0.9-0.1-1.3-0.1c-0.8,0-1.4,0.2-1.9,0.5c-0.5,0.3-0.8,0.7-1,1.3c-0.2,0.6-0.3,1.3-0.3,2.1c0,1.1,0.3,2,0.8,2.6
	c0.5,0.6,1.4,0.9,2.5,0.9c0.4,0,0.8,0,1.3-0.1c0.4-0.1,0.8-0.2,1.2-0.3v1c-0.4,0.1-0.8,0.2-1.2,0.3C99.6,36.8,99.1,36.8,98.6,36.8z"
	/>
<path class="st4" d="M105.8,36.8c-1.1,0-2-0.3-2.5-0.9c-0.5-0.6-0.8-1.4-0.8-2.6c0-1.1,0.3-1.9,0.8-2.5c0.5-0.6,1.4-0.9,2.5-0.9
	c1.1,0,2,0.3,2.5,0.9c0.5,0.6,0.8,1.4,0.8,2.5c0,1.1-0.3,2-0.8,2.6C107.8,36.5,107,36.8,105.8,36.8z M105.8,35.8
	c0.8,0,1.3-0.2,1.7-0.6c0.3-0.4,0.5-1,0.5-1.9c0-0.9-0.2-1.5-0.5-1.9c-0.3-0.4-0.9-0.6-1.7-0.6c-0.8,0-1.3,0.2-1.7,0.6
	c-0.3,0.4-0.5,1-0.5,1.9c0,0.9,0.2,1.5,0.5,1.9C104.5,35.6,105.1,35.8,105.8,35.8z"/>
<path class="st4" d="M110.5,36.6v-1h1v1H110.5z"/>
</svg>
