<?xml version="1.0" standalone="no"?>
<!DOCTYPE svg PUBLIC "-//W3C//DTD SVG 20010904//EN"
 "http://www.w3.org/TR/2001/REC-SVG-20010904/DTD/svg10.dtd">
<svg version="1.0" xmlns="http://www.w3.org/2000/svg"
 width="198.000000pt" height="198.000000pt" viewBox="0 0 198.000000 198.000000"
 preserveAspectRatio="xMidYMid meet">
<metadata>
Created by potrace 1.11, written by Peter Selinger 2001-2013
</metadata>
<g transform="translate(0.000000,198.000000) scale(0.100000,-0.100000)"
fill="#000000" stroke="none">
<path d="M255 1410 l-256 -438 27 -49 c15 -26 50 -88 79 -138 29 -49 63 -108
75 -130 19 -34 155 -271 185 -323 6 -9 34 -59 63 -109 l54 -93 46 0 c26 -1
255 -2 509 -4 l461 -3 175 301 c304 523 308 531 301 552 -4 10 -17 35 -29 54
-12 19 -37 62 -55 94 -18 33 -76 134 -128 225 -52 91 -104 182 -115 201 -10
19 -31 55 -46 80 -43 74 -70 123 -93 168 -17 32 -28 42 -47 43 -15 0 -234 2
-488 4 l-462 4 -256 -439z m936 -292 c45 -79 86 -150 92 -158 7 -12 -6 -43
-48 -118 -32 -56 -60 -103 -64 -103 -3 -1 -85 -2 -183 -3 l-176 -1 -55 95
c-31 52 -57 100 -59 106 -2 7 37 82 86 168 l89 156 118 0 117 0 83 -142z"/>
</g>
</svg>
