<?xml version="1.0" encoding="utf-8"?>
<!-- Generator: Adobe Illustrator 24.1.2, SVG Export Plug-In . SVG Version: 6.00 Build 0)  -->
<!DOCTYPE svg PUBLIC "-//W3C//DTD SVG 1.1//EN" "http://www.w3.org/Graphics/SVG/1.1/DTD/svg11.dtd" [
	<!ENTITY ns_extend "http://ns.adobe.com/Extensibility/1.0/">
	<!ENTITY ns_ai "http://ns.adobe.com/AdobeIllustrator/10.0/">
	<!ENTITY ns_graphs "http://ns.adobe.com/Graphs/1.0/">
	<!ENTITY ns_vars "http://ns.adobe.com/Variables/1.0/">
	<!ENTITY ns_imrep "http://ns.adobe.com/ImageReplacement/1.0/">
	<!ENTITY ns_sfw "http://ns.adobe.com/SaveForWeb/1.0/">
	<!ENTITY ns_custom "http://ns.adobe.com/GenericCustomNamespace/1.0/">
	<!ENTITY ns_adobe_xpath "http://ns.adobe.com/XPath/1.0/">
]>
<svg version="1.1" id="Calque_1" xmlns:x="&ns_extend;" xmlns:i="&ns_ai;" xmlns:graph="&ns_graphs;"
	 xmlns="http://www.w3.org/2000/svg" xmlns:xlink="http://www.w3.org/1999/xlink" x="0px" y="0px" width="26.8px" height="45px"
	 viewBox="0 0 26.8 45" style="enable-background:new 0 0 26.8 45;" xml:space="preserve">
<style>
	.st0{fill-rule:evenodd;clip-rule:evenodd;}
</style>
<metadata>
	<sfw  xmlns="&ns_sfw;">
		<slices></slices>
		<sliceSourceBounds  bottomLeftOrigin="true" height="45" width="26.8" x="0" y="0"></sliceSourceBounds>
	</sfw>
</metadata>
<path id="Forme_11_copie" class="st0" d="M12.4,0.5l-12,13.8c-0.5,0.6-0.5,1.6,0.2,2.1c0,0,0,0,0,0C1.2,17,2.1,17,2.7,16.3l9.2-10.6
	v37.7c0,0.8,0.7,1.5,1.5,1.5s1.5-0.7,1.5-1.5V5.3l5.4,6l3.7,4.7c0.5,0.7,1.5,0.8,2.1,0.3c0.7-0.5,0.8-1.5,0.3-2.1l-3.8-4.8l-8-8.9
	C14.4,0.2,13.9,0,13.5,0C13.1,0,12.6,0.2,12.4,0.5z"/>
</svg>
